<svg width="92" height="101" viewBox="0 0 92 101" fill="none" xmlns="http://www.w3.org/2000/svg">
<path fill-rule="evenodd" clip-rule="evenodd" d="M5.3887 50.7343C5.3887 73.5332 23.8709 92.0154 46.6698 92.0154C69.4688 92.0154 87.951 73.5332 87.951 50.7342C87.951 27.9353 69.4688 9.45312 46.6698 9.45312C23.8709 9.45312 5.3887 27.9353 5.3887 50.7343ZM46.6698 95.5029C21.9448 95.5029 1.90115 75.4593 1.90115 50.7343C1.90115 26.0092 21.9448 5.96558 46.6698 5.96557C71.3949 5.96557 91.4385 26.0092 91.4385 50.7342C91.4385 75.4593 71.3949 95.5029 46.6698 95.5029Z" fill="black"/>
<path fill-rule="evenodd" clip-rule="evenodd" d="M40.802 89.1436C42.7669 91.104 44.748 92.0154 46.6698 92.0154C48.5917 92.0154 50.5732 91.104 52.5381 89.1436C54.51 87.1762 56.3659 84.2418 57.962 80.4768C61.1513 72.9537 63.166 62.4392 63.166 50.7343C63.166 39.0293 61.1513 28.5148 57.962 20.9917C56.3659 17.2267 54.51 14.2923 52.5381 12.3249C50.5732 10.3645 48.5917 9.45312 46.6698 9.45312C44.7479 9.45312 42.7669 10.3645 40.802 12.3249C38.8301 14.2923 36.9742 17.2267 35.3781 20.9917C32.1888 28.5148 30.1741 39.0293 30.1741 50.7343C30.1741 62.4392 32.1888 72.9537 35.3781 80.4768C36.9742 84.2418 38.8301 87.1762 40.802 89.1436ZM32.1672 81.8381C28.755 73.7893 26.6866 62.7913 26.6866 50.7343C26.6866 38.6772 28.755 27.6792 32.1672 19.6304C33.8718 15.6094 35.9462 12.243 38.3387 9.85602C40.7381 7.46207 43.555 5.96557 46.6698 5.96557C49.7847 5.96557 52.6019 7.46207 55.0014 9.85602C57.3938 12.243 59.4683 15.6094 61.1729 19.6304C64.5851 27.6792 66.6535 38.6772 66.6535 50.7343C66.6535 62.7913 64.5851 73.7893 61.1729 81.8381C59.4683 85.8591 57.3938 89.2255 55.0014 91.6125C52.6019 94.0064 49.7847 95.5029 46.6698 95.5029C43.555 95.5029 40.7381 94.0064 38.3387 91.6125C35.9462 89.2255 33.8718 85.8591 32.1672 81.8381Z" fill="black"/>
<path fill-rule="evenodd" clip-rule="evenodd" d="M10.4722 64.8569C9.75688 67.5388 9.95826 69.7103 10.9192 71.3747C11.8801 73.0391 13.6601 74.2993 16.3403 75.0208C19.03 75.7448 22.4992 75.8848 26.5578 75.3846C34.6677 74.385 44.7809 70.8725 54.9177 65.02C65.0545 59.1676 73.1529 52.1656 78.0735 45.642C80.536 42.3772 82.1494 39.3028 82.8672 36.6114C83.5825 33.9295 83.3811 31.758 82.4202 30.0936C81.4593 28.4292 79.6794 27.169 76.9991 26.4476C74.3094 25.7236 70.8402 25.5835 66.7816 26.0838C58.6717 27.0833 48.5585 30.5958 38.4217 36.4483C28.285 42.3008 20.1865 49.3027 15.2659 55.8263C12.8034 59.0911 11.19 62.1656 10.4722 64.8569ZM12.4816 53.7262C17.746 46.7468 26.2363 39.4565 36.678 33.428C47.1197 27.3995 57.6784 23.6918 66.355 22.6224C70.6896 22.0882 74.6422 22.2015 77.9056 23.0799C81.1786 23.9609 83.8831 25.6523 85.4405 28.3498C86.998 31.0474 87.1105 34.2352 86.237 37.5102C85.366 40.7756 83.4878 44.2553 80.8578 47.7421C75.5934 54.7215 67.1031 62.0118 56.6614 68.0403C46.2197 74.0689 35.661 77.7765 26.9844 78.8459C22.6498 79.3802 18.6972 79.2669 15.4338 78.3884C12.1608 77.5074 9.45632 75.8161 7.89889 73.1185C6.34146 70.4209 6.22894 67.2331 7.10245 63.9581C7.97341 60.6927 9.8516 57.213 12.4816 53.7262Z" fill="black"/>
<path fill-rule="evenodd" clip-rule="evenodd" d="M10.4722 36.6116C9.75687 33.9297 9.95825 31.7582 10.9192 30.0938C11.8801 28.4294 13.6601 27.1692 16.3403 26.4478C19.03 25.7238 22.4992 25.5837 26.5578 26.084C34.6677 27.0835 44.7809 30.596 54.9177 36.4485C65.0545 42.301 73.1529 49.3029 78.0735 55.8265C80.536 59.0913 82.1494 62.1657 82.8672 64.8571C83.5825 67.539 83.3811 69.7105 82.4202 71.3749C81.4593 73.0393 79.6793 74.2995 76.9991 75.0209C74.3094 75.7449 70.8402 75.885 66.7816 75.3848C58.6717 74.3852 48.5585 70.8727 38.4217 65.0202C28.285 59.1677 20.1865 52.1658 15.2659 45.6422C12.8034 42.3774 11.19 39.303 10.4722 36.6116ZM12.4816 47.7423C17.746 54.7217 26.2363 62.012 36.678 68.0405C47.1197 74.0691 57.6784 77.7767 66.355 78.8461C70.6896 79.3804 74.6422 79.2671 77.9056 78.3886C81.1786 77.5076 83.8831 75.8162 85.4405 73.1187C86.998 70.4211 87.1105 67.2333 86.237 63.9583C85.366 60.6929 83.4878 57.2132 80.8578 53.7264C75.5934 46.747 67.1031 39.4567 56.6614 33.4282C46.2197 27.3996 35.661 23.692 26.9844 22.6226C22.6498 22.0883 18.6972 22.2017 15.4338 23.0801C12.1608 23.9611 9.45632 25.6525 7.89889 28.35C6.34146 31.0476 6.22894 34.2354 7.10244 37.5104C7.97341 40.7758 9.85159 44.2555 12.4816 47.7423Z" fill="black"/>
<path d="M46.6698 0.734253C50.5221 0.734253 53.6449 3.85711 53.6449 7.70935C53.6449 11.5616 50.5221 14.6844 46.6698 14.6844C42.8176 14.6844 39.6947 11.5616 39.6947 7.70935C39.6947 3.85711 42.8176 0.734253 46.6698 0.734253Z" fill="black"/>
<path d="M7.26428 21.3888C11.1165 21.3888 14.2394 24.5116 14.2394 28.3639C14.2394 32.2161 11.1165 35.339 7.26428 35.339C3.41204 35.339 0.289185 32.2161 0.289185 28.3639C0.289184 24.5116 3.41204 21.3888 7.26428 21.3888Z" fill="black"/>
<path d="M7.26428 66.7269C11.1165 66.7269 14.2394 69.8498 14.2394 73.702C14.2394 77.5542 11.1165 80.6771 7.26428 80.6771C3.41204 80.6771 0.289185 77.5542 0.289185 73.702C0.289184 69.8498 3.41204 66.7269 7.26428 66.7269Z" fill="black"/>
<path d="M82.7196 21.4494C86.5719 21.4494 89.6947 24.5723 89.6947 28.4245C89.6947 32.2767 86.5719 35.3996 82.7196 35.3996C78.8674 35.3996 75.7445 32.2767 75.7445 28.4245C75.7445 24.5723 78.8674 21.4494 82.7196 21.4494Z" fill="black"/>
<path d="M82.7196 66.7269C86.5719 66.7269 89.6947 69.8498 89.6947 73.702C89.6947 77.5542 86.5719 80.6771 82.7196 80.6771C78.8674 80.6771 75.7445 77.5542 75.7445 73.702C75.7445 69.8498 78.8674 66.7269 82.7196 66.7269Z" fill="black"/>
<path d="M46.6698 86.7841C50.5221 86.7841 53.6449 89.9069 53.6449 93.7592C53.6449 97.6114 50.5221 100.734 46.6698 100.734C42.8176 100.734 39.6947 97.6114 39.6947 93.7592C39.6947 89.9069 42.8176 86.7841 46.6698 86.7841Z" fill="black"/>
</svg>
