<svg width="68" height="67" viewBox="0 0 68 67" fill="none" xmlns="http://www.w3.org/2000/svg">
<path d="M38.2837 7.78246C38.2837 12.0337 34.8373 15.4801 30.5861 15.4801C26.3348 15.4801 22.8884 12.0337 22.8884 7.78246C22.8884 3.53118 26.3348 0.0848389 30.5861 0.0848389C34.8373 0.0848389 38.2837 3.53118 38.2837 7.78246Z" fill="black"/>
<path d="M15.8058 58.5101C15.8058 62.7614 12.3594 66.2078 8.10814 66.2078C3.85687 66.2078 0.410522 62.7614 0.410522 58.5101C0.410522 54.2589 3.85687 50.8125 8.10814 50.8125C12.3594 50.8125 15.8058 54.2589 15.8058 58.5101Z" fill="black"/>
<path d="M51.8503 20.2031C51.8503 23.2397 49.3886 25.7014 46.352 25.7014C43.3154 25.7014 40.8537 23.2397 40.8537 20.2031C40.8537 17.1665 43.3154 14.7048 46.352 14.7048C49.3886 14.7048 51.8503 17.1665 51.8503 20.2031Z" fill="black"/>
<path d="M67.4109 35.7377C67.4109 39.9889 63.9646 43.4353 59.7133 43.4353C55.462 43.4353 52.0157 39.9889 52.0157 35.7377C52.0157 31.4864 55.462 28.04 59.7133 28.04C63.9646 28.04 67.4109 31.4864 67.4109 35.7377Z" fill="black"/>
<path d="M36.155 59.22C36.155 62.2566 33.6933 64.7183 30.6567 64.7183C27.6201 64.7183 25.1584 62.2566 25.1584 59.22C25.1584 56.1833 27.6201 53.7217 30.6567 53.7217C33.6933 53.7217 36.155 56.1833 36.155 59.22Z" fill="black"/>
<path d="M13.6066 36.6561C13.6066 39.6927 11.1449 42.1544 8.10832 42.1544C5.07169 42.1544 2.61002 39.6927 2.61002 36.6561C2.61002 33.6195 5.07169 31.1578 8.10832 31.1578C11.1449 31.1578 13.6066 33.6195 13.6066 36.6561Z" fill="black"/>
<path fill-rule="evenodd" clip-rule="evenodd" d="M30.6567 27.5588C25.6324 27.5588 21.5594 31.6318 21.5594 36.6561C21.5594 41.6804 25.6324 45.7534 30.6567 45.7534C35.681 45.7534 39.754 41.6804 39.754 36.6561C39.754 31.6318 35.681 27.5588 30.6567 27.5588ZM19.3601 36.6561C19.3601 30.4171 24.4178 25.3595 30.6567 25.3595C36.8957 25.3595 41.9534 30.4171 41.9534 36.6561C41.9534 42.8951 36.8957 47.9527 30.6567 47.9527C24.4178 47.9527 19.3601 42.8951 19.3601 36.6561Z" fill="black"/>
<path fill-rule="evenodd" clip-rule="evenodd" d="M29.4458 26.4591V9.67159H31.6451V26.4591H29.4458Z" fill="black"/>
<path fill-rule="evenodd" clip-rule="evenodd" d="M12.4102 35.2423H20.4597V37.4416H12.4102V35.2423Z" fill="black"/>
<path fill-rule="evenodd" clip-rule="evenodd" d="M40.8538 35.2423H63.1775V37.4416H40.8538V35.2423Z" fill="black"/>
<path fill-rule="evenodd" clip-rule="evenodd" d="M29.4458 54.772V46.8531H31.6451V54.772H29.4458Z" fill="black"/>
<path fill-rule="evenodd" clip-rule="evenodd" d="M37.0416 28.0401L44.8786 20.2031L46.4338 21.7582L38.5967 29.5953L37.0416 28.0401Z" fill="black"/>
<path fill-rule="evenodd" clip-rule="evenodd" d="M4.77733 60.5558L22.8885 42.4446L24.4437 43.9997L6.33249 62.1109L4.77733 60.5558Z" fill="black"/>
</svg>
