<svg width="301" height="64" viewBox="0 0 301 64" fill="none" xmlns="http://www.w3.org/2000/svg">
<g clip-path="url(#clip0_234_1218)">
<g clip-path="url(#clip1_234_1218)">
<path d="M73.5682 22.9649C73.0031 24.3439 72.0973 25.4563 70.8772 26.2703C69.6553 27.0843 68.0892 27.4975 66.221 27.4975C64.3529 27.4975 62.822 27.0896 61.5419 26.2844C60.2618 25.4792 59.2782 24.3757 58.6196 23.0037C57.9575 21.6229 57.622 20.0638 57.622 18.3687C57.622 16.6736 57.9575 15.0863 58.6196 13.7161C59.2765 12.3565 60.26 11.2582 61.5419 10.453C62.8238 9.64786 64.3971 9.23998 66.221 9.23998C68.045 9.23998 69.6553 9.65316 70.8772 10.4672C72.0973 11.2811 73.0031 12.3935 73.5682 13.7726L73.6353 13.9368H76.9742L76.8542 13.5854C76.3509 12.1216 75.5828 10.8185 74.5746 9.71496C73.5646 8.60962 72.3233 7.72676 70.8843 7.09111C69.4435 6.45545 67.8031 6.13232 66.0091 6.13232C63.6396 6.13232 61.5596 6.68676 59.8292 7.77973C58.1005 8.87271 56.755 10.3647 55.8316 12.2117C54.9099 14.0533 54.4437 16.1245 54.4437 18.3687C54.4437 20.6129 54.9099 22.6859 55.8316 24.5258C56.755 26.3745 58.1005 27.8647 59.8292 28.9577C61.5596 30.0507 63.6378 30.6051 66.0091 30.6051C67.8049 30.6051 69.4435 30.282 70.8843 29.6463C72.3233 29.0107 73.5664 28.1225 74.5764 27.0031C75.5846 25.8871 76.3509 24.5911 76.8542 23.152L76.9778 22.7989H73.637L73.5699 22.9631L73.5682 22.9649Z" fill="black"/>
<path d="M86.2204 12.4251C85.4064 12.8012 84.7213 13.2656 84.1846 13.8024C83.6478 14.3392 83.2364 14.8742 82.9556 15.4003C82.9397 15.4321 82.9221 15.4621 82.9062 15.4922V12.1355H79.7279V30.3224H82.9062V22.2884C82.9062 21.0365 83.1534 19.8429 83.6425 18.7411C84.1281 17.6463 84.8361 16.7441 85.749 16.0554C86.6513 15.3756 87.7442 15.0313 88.9979 15.0313H89.5806V11.853H89.1392C88.0232 11.853 87.0415 12.0455 86.2204 12.4251Z" fill="black"/>
<path d="M99.8071 26.1608L94.2999 12.1357H90.7914L98.1032 29.807L94.7713 37.3148H98.2144L108.892 12.1357H105.417L99.8071 26.1608Z" fill="black"/>
<path d="M124.506 13.112C123.185 12.2768 121.622 11.853 119.862 11.853C118.366 11.853 117.06 12.1426 115.977 12.7129C115.135 13.1579 114.408 13.737 113.806 14.4433V12.1355H110.627V37.3146H113.806V27.9669C114.406 28.6609 115.133 29.2435 115.974 29.7062C117.055 30.303 118.363 30.6049 119.862 30.6049C121.622 30.6049 123.185 30.1811 124.506 29.3459C125.825 28.5108 126.86 27.3648 127.583 25.9399C128.306 24.5203 128.671 22.9346 128.671 21.229C128.671 19.5233 128.306 17.9077 127.582 16.5004C126.858 15.0878 125.821 13.9472 124.504 13.1137L124.506 13.112ZM125.495 21.229C125.495 22.3837 125.254 23.4679 124.78 24.4514C124.308 25.4278 123.621 26.2171 122.737 26.7998C121.855 27.3807 120.77 27.6738 119.509 27.6738C118.248 27.6738 117.206 27.3789 116.336 26.7998C115.464 26.2189 114.794 25.4296 114.346 24.4549C113.894 23.4714 113.664 22.3855 113.664 21.229C113.664 20.0724 113.894 18.9583 114.346 17.9853C114.793 17.023 115.464 16.2391 116.336 15.6581C117.206 15.079 118.273 14.7841 119.509 14.7841C120.745 14.7841 121.854 15.079 122.737 15.6581C123.623 16.2408 124.31 17.0266 124.781 17.9906C125.256 18.9618 125.496 20.0512 125.496 21.229H125.495Z" fill="black"/>
<path d="M136.724 5.81396H133.546V12.1352H129.944V14.9957H133.546V30.3221H136.724V14.9957H140.785V12.1352H136.724V5.81396Z" fill="black"/>
<path d="M155.545 13.112C154.201 12.2768 152.58 11.853 150.726 11.853C148.872 11.853 147.279 12.2768 145.925 13.1102C144.571 13.9436 143.517 15.0843 142.791 16.4986C142.069 17.9077 141.701 19.4986 141.701 21.2272C141.701 22.9558 142.067 24.5185 142.789 25.9381C143.515 27.3648 144.569 28.5108 145.923 29.3459C147.278 30.1811 148.893 30.6031 150.724 30.6031C152.555 30.6031 154.199 30.1794 155.543 29.3442C156.885 28.509 157.934 27.3631 158.658 25.9381C159.38 24.5185 159.745 22.9329 159.745 21.2272C159.745 19.5215 159.38 17.9059 158.656 16.4986C157.93 15.0843 156.883 13.9454 155.541 13.1102L155.545 13.112ZM153.915 26.8016C153.058 27.3807 151.985 27.6738 150.726 27.6738C149.467 27.6738 148.422 27.3789 147.553 26.7998C146.681 26.2189 146.012 25.4296 145.563 24.4549C145.111 23.4714 144.881 22.3855 144.881 21.229C144.881 20.0724 145.111 18.9583 145.563 17.9853C146.012 17.023 146.681 16.2391 147.553 15.6581C148.423 15.079 149.49 14.7841 150.726 14.7841C151.962 14.7841 153.057 15.0772 153.915 15.6564C154.777 16.2391 155.44 17.023 155.889 17.9853C156.341 18.9583 156.57 20.0495 156.57 21.229C156.57 22.4085 156.341 23.4714 155.889 24.4549C155.44 25.4296 154.777 26.2189 153.915 26.7998V26.8016Z" fill="black"/>
<path d="M163.281 30.3223H181.008V27.25H166.459V19.9046H179.454V16.7969H166.459V9.48689H181.008V6.41455H163.281V30.3223Z" fill="black"/>
<path d="M188.618 15.6617C189.536 15.079 190.629 14.7841 191.867 14.7841C193.105 14.7841 194.076 15.0878 194.908 15.6882C195.745 16.2903 196.361 17.0831 196.741 18.0419L196.808 18.2096H200.205L200.102 17.8688C199.569 16.1031 198.533 14.6429 197.021 13.5287C195.51 12.4163 193.658 11.853 191.514 11.853C189.706 11.853 188.113 12.2768 186.782 13.112C185.452 13.9454 184.405 15.086 183.669 16.4986C182.934 17.9077 182.562 19.4986 182.562 21.229C182.562 22.9594 182.934 24.522 183.669 25.9417C184.405 27.3666 185.452 28.5125 186.784 29.3459C188.115 30.1811 189.706 30.6049 191.516 30.6049C193.659 30.6049 195.512 30.0416 197.023 28.9292C198.535 27.8168 199.571 26.3566 200.104 24.5891L200.207 24.2483H196.809L196.742 24.4161C196.363 25.3766 195.746 26.1677 194.91 26.7698C194.078 27.3701 193.054 27.6738 191.869 27.6738C190.684 27.6738 189.538 27.3789 188.62 26.7963C187.7 26.2136 186.983 25.4225 186.491 24.4461C185.994 23.4644 185.742 22.382 185.742 21.229C185.742 20.076 185.993 18.9653 186.491 17.9942C186.983 17.0301 187.7 16.2444 188.622 15.6599L188.618 15.6617Z" fill="black"/>
<path d="M215.614 13.112C214.27 12.2768 212.65 11.853 210.796 11.853C208.942 11.853 207.349 12.2768 205.995 13.1102C204.64 13.9436 203.586 15.0843 202.86 16.4986C202.138 17.9077 201.771 19.4986 201.771 21.2272C201.771 22.9558 202.136 24.5185 202.859 25.9381C203.584 27.3648 204.639 28.5108 205.993 29.3459C207.347 30.1811 208.963 30.6031 210.794 30.6031C212.625 30.6031 214.269 30.1794 215.612 29.3442C216.954 28.509 218.003 27.3631 218.727 25.9381C219.449 24.5185 219.815 22.9329 219.815 21.2272C219.815 19.5215 219.449 17.9059 218.725 16.4986C218 15.0843 216.953 13.9454 215.611 13.1102L215.614 13.112ZM213.984 26.8016C213.128 27.3807 212.055 27.6738 210.796 27.6738C209.537 27.6738 208.491 27.3789 207.623 26.7998C206.75 26.2189 206.081 25.4296 205.633 24.4549C205.181 23.4714 204.951 22.3855 204.951 21.229C204.951 20.0724 205.181 18.9583 205.633 17.9853C206.081 17.023 206.75 16.2391 207.623 15.6581C208.493 15.079 209.56 14.7841 210.796 14.7841C212.032 14.7841 213.126 15.0772 213.984 15.6564C214.846 16.2391 215.51 17.023 215.958 17.9853C216.411 18.9583 216.64 20.0495 216.64 21.229C216.64 22.4085 216.411 23.4714 215.958 24.4549C215.51 25.4296 214.846 26.2189 213.984 26.7998V26.8016Z" fill="black"/>
<path d="M235.127 12.75C234.021 12.155 232.821 11.853 231.558 11.853C230.079 11.853 228.841 12.1638 227.884 12.7783C227.16 13.2426 226.515 13.79 225.961 14.4133V12.1355H222.783V30.3224H225.961V19.887C225.961 18.8806 226.192 17.9818 226.648 17.2155C227.103 16.4474 227.718 15.8453 228.473 15.4215C229.231 14.9978 230.091 14.7841 231.028 14.7841C232.406 14.7841 233.539 15.2485 234.403 16.1667C235.27 17.0884 235.708 18.3279 235.708 19.8517V30.3224H238.886V19.7811C238.886 18.0701 238.535 16.6046 237.842 15.4268C237.15 14.2491 236.236 13.3486 235.127 12.75Z" fill="black"/>
<path d="M246.515 6.41504H243.336V30.3228H259.263V27.2505H246.515V6.41504Z" fill="black"/>
<path d="M274.978 14.4786C274.376 13.7724 273.648 13.1861 272.808 12.7324C271.725 12.1497 270.419 11.853 268.921 11.853C267.159 11.853 265.597 12.2768 264.278 13.112C262.96 13.9454 261.924 15.086 261.2 16.4986C260.478 17.9077 260.11 19.4986 260.11 21.2272C260.11 22.9558 260.476 24.5185 261.198 25.9381C261.922 27.3631 262.959 28.509 264.276 29.3442C265.597 30.1794 267.159 30.6031 268.92 30.6031C270.417 30.6031 271.724 30.3065 272.806 29.7238C273.646 29.27 274.374 28.6926 274.976 27.9987V30.3206H278.154V12.1355H274.976V14.4786H274.978ZM274.437 17.9853C274.889 18.9583 275.119 20.0495 275.119 21.229C275.119 22.4085 274.889 23.4714 274.437 24.4549C273.989 25.4296 273.325 26.2189 272.463 26.7998C271.607 27.3789 270.533 27.6721 269.275 27.6721C268.016 27.6721 266.956 27.3772 266.064 26.7963C265.169 26.2136 264.475 25.4243 264.004 24.4496C263.529 23.4661 263.289 22.382 263.289 21.2272C263.289 20.0724 263.529 18.96 264.004 17.9889C264.475 17.0248 265.167 16.2408 266.064 15.6581C266.958 15.0772 268.039 14.7823 269.275 14.7823C270.511 14.7823 271.605 15.0755 272.463 15.6546C273.325 16.2373 273.989 17.0213 274.437 17.9836V17.9853Z" fill="black"/>
<path d="M299.173 16.5005C298.449 15.0879 297.413 13.9472 296.096 13.1138C294.775 12.2786 293.212 11.8549 291.452 11.8549C289.955 11.8549 288.646 12.1515 287.566 12.7342C286.725 13.188 285.998 13.7724 285.395 14.4805V5.07275H282.217V30.3225H285.395V28.0023C285.998 28.6945 286.723 29.2719 287.566 29.7256C288.646 30.3083 289.955 30.605 291.452 30.605C293.212 30.605 294.775 30.1812 296.096 29.346C297.415 28.5108 298.449 27.3649 299.173 25.94C299.895 24.5203 300.261 22.9347 300.261 21.229C300.261 19.5234 299.895 17.9077 299.172 16.5005H299.173ZM297.084 21.229C297.084 22.3838 296.844 23.468 296.369 24.4515C295.898 25.4279 295.211 26.2172 294.326 26.7999C293.445 27.3808 292.359 27.6739 291.099 27.6739C289.838 27.6739 288.796 27.379 287.926 26.7999C287.053 26.2189 286.384 25.4297 285.936 24.455C285.484 23.4715 285.254 22.3856 285.254 21.229C285.254 20.0725 285.484 18.9583 285.936 17.9854C286.382 17.0231 287.053 16.2391 287.926 15.6582C288.796 15.0791 289.863 14.7842 291.099 14.7842C292.335 14.7842 293.444 15.0791 294.326 15.6582C295.213 16.2409 295.9 17.0266 296.371 17.9907C296.846 18.9619 297.086 20.0513 297.086 21.229H297.084Z" fill="black"/>
</g>
<path d="M59.4531 63.8119C58.3721 63.8119 57.4262 63.5559 56.619 63.0456C55.8118 62.5335 55.1859 61.8419 54.7414 60.9671C54.297 60.0924 54.0747 59.1305 54.0747 58.0779C54.0747 57.0253 54.297 56.0439 54.7414 55.178C55.1859 54.3121 55.8118 53.6223 56.619 53.112C57.4262 52.6 58.3703 52.3457 59.4531 52.3457C60.3723 52.3457 61.1599 52.5235 61.8196 52.8791C62.4792 53.2347 63.0162 53.7165 63.4304 54.3228V52.5235H65.0982V63.6359H63.4304V61.8579C63.0162 62.45 62.4774 62.9247 61.8196 63.2803C61.1599 63.6359 60.3705 63.8137 59.4531 63.8137V63.8119ZM59.6753 62.3006C60.5057 62.3006 61.2044 62.1086 61.7751 61.7228C62.3459 61.3369 62.7779 60.8231 63.0748 60.1777C63.3718 59.5341 63.5193 58.8335 63.5193 58.0779C63.5193 57.3223 63.3718 56.604 63.0748 55.9657C62.7779 55.3291 62.3441 54.8171 61.7751 54.433C61.2044 54.0472 60.5039 53.8552 59.6753 53.8552C58.8468 53.8552 58.1569 54.0472 57.5631 54.433C56.971 54.8189 56.5176 55.3291 56.2083 55.9657C55.8971 56.6022 55.7425 57.3063 55.7425 58.0779C55.7425 58.8495 55.8989 59.5341 56.2083 60.1777C56.5176 60.8213 56.971 61.3369 57.5631 61.7228C58.1552 62.1086 58.8592 62.3006 59.6753 62.3006Z" fill="black"/>
<path d="M69.1871 63.634V53.9884H66.9202V52.5216H69.1871V48.5425H70.8548V52.5216H73.4116V53.9884H70.8548V63.634H69.1871Z" fill="black"/>
<path d="M80.3216 63.6341V48.9214H86.9446C88.5145 48.9214 89.752 49.3481 90.657 50.1998C91.5602 51.0514 92.0118 52.2035 92.0118 53.6561C92.0118 55.1087 91.5602 56.2609 90.657 57.1125C89.7538 57.9642 88.5163 58.3909 86.9446 58.3909H81.9876V63.6359H80.3198L80.3216 63.6341ZM81.9893 56.8334H86.8343C87.99 56.8334 88.8648 56.5525 89.4569 55.9888C90.0489 55.4252 90.3458 54.6483 90.3458 53.6561C90.3458 52.664 90.0489 51.9084 89.4569 51.3448C88.8648 50.7812 87.99 50.5002 86.8343 50.5002H81.9893V56.8334Z" fill="black"/>
<path d="M93.9231 63.6339V52.5215H95.5908V55.2561C95.6495 55.0641 95.7651 54.808 95.9358 54.4898C96.1065 54.1715 96.3536 53.8497 96.6807 53.5225C97.0079 53.1954 97.4168 52.9198 97.9147 52.6887C98.4107 52.4593 98.9992 52.3438 99.682 52.3438H99.7922V54.0115H99.5931C98.7628 54.0115 98.048 54.2373 97.4488 54.6889C96.8479 55.1405 96.3892 55.7255 96.0709 56.4455C95.7526 57.1638 95.5926 57.9319 95.5926 58.7462V63.6357H93.9249L93.9231 63.6339Z" fill="black"/>
<path d="M106.124 63.8119C104.998 63.8119 104.02 63.5558 103.19 63.0456C102.36 62.5335 101.723 61.8419 101.279 60.9671C100.834 60.0923 100.612 59.1305 100.612 58.0779C100.612 57.0253 100.834 56.0439 101.279 55.178C101.723 54.3121 102.36 53.6223 103.19 53.112C104.02 52.6 104.998 52.3457 106.124 52.3457C107.249 52.3457 108.246 52.6017 109.068 53.112C109.889 53.6223 110.524 54.3121 110.969 55.178C111.413 56.0439 111.635 57.0111 111.635 58.0779C111.635 59.1447 111.413 60.0923 110.969 60.9671C110.524 61.8419 109.891 62.5335 109.068 63.0456C108.245 63.5576 107.263 63.8119 106.124 63.8119ZM106.124 62.3006C106.954 62.3006 107.653 62.1086 108.223 61.7228C108.794 61.3369 109.226 60.8231 109.523 60.1777C109.82 59.5341 109.968 58.8335 109.968 58.0779C109.968 57.3223 109.82 56.604 109.523 55.9657C109.226 55.3291 108.792 54.8171 108.223 54.433C107.653 54.0472 106.952 53.8552 106.124 53.8552C105.295 53.8552 104.612 54.0472 104.034 54.433C103.457 54.8189 103.019 55.3291 102.722 55.9657C102.425 56.6022 102.278 57.3063 102.278 58.0779C102.278 58.8495 102.425 59.5341 102.722 60.1777C103.019 60.8213 103.455 61.3369 104.034 61.7228C104.612 62.1086 105.309 62.3006 106.124 62.3006Z" fill="black"/>
<path d="M115.037 63.634V53.9884H112.77V52.5216H115.037V48.5425H116.705V52.5216H119.261V53.9884H116.705V63.634H115.037Z" fill="black"/>
<path d="M125.681 63.8119C124.556 63.8119 123.578 63.5558 122.748 63.0456C121.917 62.5335 121.281 61.8419 120.836 60.9671C120.392 60.0923 120.17 59.1305 120.17 58.0779C120.17 57.0253 120.392 56.0439 120.836 55.178C121.281 54.3121 121.917 53.6223 122.748 53.112C123.578 52.6 124.556 52.3457 125.681 52.3457C126.807 52.3457 127.804 52.6017 128.626 53.112C129.447 53.6223 130.082 54.3121 130.526 55.178C130.971 56.0439 131.193 57.0111 131.193 58.0779C131.193 59.1447 130.971 60.0923 130.526 60.9671C130.082 61.8419 129.449 62.5335 128.626 63.0456C127.802 63.5576 126.821 63.8119 125.681 63.8119ZM125.681 62.3006C126.512 62.3006 127.21 62.1086 127.781 61.7228C128.352 61.3369 128.784 60.8231 129.081 60.1777C129.378 59.5341 129.525 58.8335 129.525 58.0779C129.525 57.3223 129.378 56.604 129.081 55.9657C128.784 55.3291 128.35 54.8171 127.781 54.433C127.21 54.0472 126.51 53.8552 125.681 53.8552C124.853 53.8552 124.17 54.0472 123.592 54.433C123.014 54.8189 122.577 55.3291 122.28 55.9657C121.983 56.6022 121.836 57.3063 121.836 58.0779C121.836 58.8495 121.983 59.5341 122.28 60.1777C122.577 60.8213 123.013 61.3369 123.592 61.7228C124.17 62.1086 124.867 62.3006 125.681 62.3006Z" fill="black"/>
<path d="M138.172 63.8119C137.061 63.8119 136.097 63.5559 135.283 63.0456C134.468 62.5335 133.834 61.8419 133.382 60.9671C132.93 60.0924 132.705 59.1305 132.705 58.0779C132.705 57.0253 132.93 56.0439 133.382 55.178C133.834 54.3104 134.467 53.6223 135.283 53.112C136.097 52.6 137.061 52.3457 138.172 52.3457C139.491 52.3457 140.613 52.6871 141.539 53.368C142.466 54.049 143.092 54.9309 143.417 56.0137H141.618C141.365 55.3772 140.962 54.858 140.407 54.4579C139.852 54.0579 139.18 53.857 138.396 53.857C137.612 53.857 136.87 54.049 136.262 54.4348C135.654 54.8206 135.188 55.3309 134.861 55.9674C134.536 56.604 134.372 57.308 134.372 58.0797C134.372 58.8513 134.536 59.5358 134.861 60.1795C135.187 60.8231 135.654 61.3387 136.262 61.7245C136.87 62.1104 137.582 62.3024 138.396 62.3024C139.21 62.3024 139.852 62.1032 140.407 61.7014C140.962 61.2996 141.365 60.7822 141.618 60.1457H143.417C143.092 61.2267 142.464 62.1086 141.539 62.7913C140.613 63.4723 139.491 63.8137 138.172 63.8137V63.8119Z" fill="black"/>
<path d="M150.306 63.8119C149.181 63.8119 148.203 63.5558 147.373 63.0456C146.542 62.5335 145.906 61.8419 145.461 60.9671C145.017 60.0923 144.794 59.1305 144.794 58.0779C144.794 57.0253 145.017 56.0439 145.461 55.178C145.906 54.3121 146.542 53.6223 147.373 53.112C148.203 52.6 149.181 52.3457 150.306 52.3457C151.432 52.3457 152.429 52.6017 153.25 53.112C154.072 53.6223 154.707 54.3121 155.151 55.178C155.596 56.0439 155.818 57.0111 155.818 58.0779C155.818 59.1447 155.596 60.0923 155.151 60.9671C154.707 61.8419 154.074 62.5335 153.25 63.0456C152.427 63.5576 151.446 63.8119 150.306 63.8119ZM150.306 62.3006C151.136 62.3006 151.835 62.1086 152.406 61.7228C152.977 61.3369 153.409 60.8231 153.706 60.1777C154.003 59.5341 154.15 58.8335 154.15 58.0779C154.15 57.3223 154.003 56.604 153.706 55.9657C153.409 55.3291 152.975 54.8171 152.406 54.433C151.835 54.0472 151.135 53.8552 150.306 53.8552C149.478 53.8552 148.795 54.0472 148.217 54.433C147.639 54.8189 147.202 55.3291 146.905 55.9657C146.608 56.6022 146.46 57.3063 146.46 58.0779C146.46 58.8495 146.608 59.5341 146.905 60.1777C147.202 60.8213 147.637 61.3369 148.217 61.7228C148.795 62.1086 149.492 62.3006 150.306 62.3006Z" fill="black"/>
<path d="M158.017 63.634V48.0767H159.685V63.634H158.017Z" fill="black"/>
<path d="M167.662 63.6341V48.9214H169.33V62.034H177.352V63.6341H167.662Z" fill="black"/>
<path d="M183.599 63.8119C182.518 63.8119 181.572 63.5559 180.764 63.0456C179.957 62.5335 179.331 61.8419 178.887 60.9671C178.442 60.0924 178.22 59.1305 178.22 58.0779C178.22 57.0253 178.442 56.0439 178.887 55.178C179.331 54.3121 179.957 53.6223 180.764 53.112C181.572 52.6 182.516 52.3457 183.599 52.3457C184.518 52.3457 185.305 52.5235 185.965 52.8791C186.625 53.2347 187.162 53.7165 187.576 54.3228V52.5235H189.244V63.6359H187.576V61.8579C187.162 62.45 186.623 62.9247 185.965 63.2803C185.305 63.6359 184.516 63.8137 183.599 63.8137V63.8119ZM183.821 62.3006C184.651 62.3006 185.35 62.1086 185.921 61.7228C186.491 61.3369 186.923 60.8231 187.22 60.1777C187.517 59.5341 187.665 58.8335 187.665 58.0779C187.665 57.3223 187.517 56.604 187.22 55.9657C186.923 55.3291 186.49 54.8171 185.921 54.433C185.35 54.0472 184.649 53.8552 183.821 53.8552C182.992 53.8552 182.302 54.0472 181.709 54.433C181.117 54.8189 180.663 55.3291 180.354 55.9657C180.043 56.6022 179.888 57.3063 179.888 58.0779C179.888 58.8495 180.044 59.5341 180.354 60.1777C180.663 60.8213 181.117 61.3369 181.709 61.7228C182.301 62.1086 183.005 62.3006 183.821 62.3006Z" fill="black"/>
<path d="M197.778 63.8118C196.859 63.8118 196.07 63.634 195.412 63.2784C194.752 62.9228 194.215 62.448 193.801 61.856V63.634H192.133V48.0767H193.801V54.3209C194.215 53.7128 194.752 53.2328 195.412 52.8772C196.072 52.5216 196.859 52.3438 197.778 52.3438C198.859 52.3438 199.803 52.5998 200.612 53.1101C201.42 53.6222 202.046 54.3102 202.49 55.1761C202.935 56.042 203.157 57.0092 203.157 58.076C203.157 59.1428 202.935 60.0905 202.49 60.9652C202.046 61.84 201.42 62.5316 200.612 63.0437C199.805 63.5557 198.859 63.81 197.778 63.81V63.8118ZM197.556 62.3005C198.386 62.3005 199.092 62.1085 199.679 61.7226C200.264 61.3368 200.712 60.823 201.023 60.1776C201.334 59.5322 201.489 58.8334 201.489 58.0778C201.489 57.3221 201.333 56.6038 201.023 55.9655C200.712 55.329 200.264 54.817 199.679 54.4329C199.094 54.0471 198.386 53.8551 197.556 53.8551C196.726 53.8551 196.045 54.0471 195.467 54.4329C194.889 54.8187 194.452 55.329 194.155 55.9655C193.858 56.6021 193.71 57.3061 193.71 58.0778C193.71 58.8494 193.858 59.5339 194.155 60.1776C194.452 60.8212 194.887 61.3368 195.467 61.7226C196.045 62.1085 196.742 62.3005 197.556 62.3005Z" fill="black"/>
<path d="M209.401 63.8115C208.378 63.8115 207.514 63.6408 206.812 63.2995C206.108 62.9581 205.571 62.5101 205.201 61.9553C204.831 61.4006 204.623 60.7961 204.579 60.1436H206.312C206.357 60.5134 206.487 60.8743 206.702 61.221C206.917 61.5695 207.246 61.8504 207.69 62.0656C208.135 62.2807 208.713 62.3874 209.424 62.3874C209.646 62.3874 209.92 62.366 210.245 62.3198C210.571 62.2754 210.885 62.1936 211.189 62.0744C211.493 61.9553 211.748 61.7775 211.956 61.5411C212.164 61.3046 212.267 61.0006 212.267 60.6307C212.267 60.172 212.089 59.8164 211.733 59.5639C211.378 59.3115 210.919 59.1159 210.356 58.9754C209.792 58.835 209.196 58.6981 208.567 58.5647C207.937 58.4314 207.34 58.2571 206.778 58.042C206.215 57.8269 205.756 57.5228 205.4 57.1317C205.045 56.7387 204.867 56.2018 204.867 55.5208C204.867 54.5127 205.233 53.7322 205.967 53.1757C206.702 52.6192 207.786 52.3418 209.223 52.3418C210.201 52.3418 210.997 52.4947 211.613 52.797C212.228 53.101 212.694 53.4904 213.014 53.9633C213.332 54.438 213.52 54.9483 213.581 55.4959H211.892C211.833 55.0212 211.598 54.6141 211.191 54.2727C210.784 53.9313 210.114 53.7606 209.18 53.7606C207.417 53.7606 206.535 54.294 206.535 55.3608C206.535 55.8053 206.712 56.1467 207.068 56.3831C207.424 56.6196 207.882 56.8099 208.446 56.9503C209.01 57.0908 209.605 57.2241 210.235 57.3504C210.864 57.4766 211.46 57.6508 212.023 57.8731C212.587 58.0953 213.046 58.41 213.401 58.8172C213.757 59.2243 213.935 59.7773 213.935 60.4725C213.935 61.5535 213.524 62.3803 212.701 62.951C211.879 63.5217 210.779 63.8062 209.401 63.8062V63.8115Z" fill="black"/>
</g>
<g clip-path="url(#clip2_234_1218)">
<path d="M29.0616 17.731C29.3424 17.9048 29.6135 18.0915 29.8775 18.2885L39.1307 15.2961C39.3253 15.5832 39.5853 15.8312 39.9051 16.0163C41.036 16.6694 42.4883 16.2802 43.1415 15.1493C43.7947 14.0184 43.4055 12.5661 42.2746 11.9129C41.1437 11.2597 39.6913 11.6489 39.0381 12.7798C38.8005 13.1905 38.7016 13.6443 38.7255 14.0862L29.4412 17.089L36.5291 4.8115C37.5324 5.06831 38.6258 4.64162 39.1689 3.70132C39.8221 2.57039 39.4329 1.11806 38.302 0.464867C37.1711 -0.188324 35.7187 0.200879 35.0656 1.3318C34.5232 2.27131 34.7003 3.43254 35.4245 4.17267L28.4132 16.3169L26.3356 6.60838C26.6139 6.41537 26.8548 6.16016 27.035 5.84831C27.6882 4.71739 27.299 3.26506 26.1681 2.61187C25.0372 1.95867 23.5849 2.34788 22.9317 3.4788C22.2785 4.60972 22.6677 6.06206 23.7986 6.71525C24.2141 6.95531 24.6735 7.05421 25.1201 7.02709L27.2121 16.8018C27.8318 17.0459 28.4515 17.3513 29.0624 17.7302L29.0616 17.731Z" fill="#FF8156"/>
<path d="M30.0675 40.8822C31.3412 41.391 32.8334 40.9005 33.5384 39.6779C34.1709 38.582 33.9779 37.2326 33.1548 36.3529C33.3279 36.0323 33.4929 35.7077 33.6477 35.3775C34.9365 32.626 35.3528 29.9582 34.9198 27.2218C34.3176 23.4127 32.5399 20.2791 29.8769 18.2876C29.6137 18.0906 29.3417 17.9048 29.061 17.7302C28.45 17.3513 27.8304 17.0459 27.2107 16.8018C22.927 15.1174 18.6378 16.3887 17.2931 16.876C14.7242 17.8067 12.6315 19.4592 10.8952 21.9268C10.6504 22.2754 10.4183 22.6343 10.1958 22.9996C8.93086 22.5162 7.46178 23.0091 6.76393 24.219C5.9903 25.5581 6.44969 27.2768 7.78798 28.052C7.63166 28.4548 7.48252 28.852 7.34055 29.238C6.83251 30.6217 6.3508 32.0453 5.90018 33.4913C4.87772 33.4371 3.86085 33.9443 3.31533 34.8894C2.54091 36.2301 3.00189 37.9504 4.34257 38.7248C4.58423 38.8644 4.83864 38.9633 5.09705 39.0247C4.26361 42.4525 3.60245 46.0208 3.11674 49.7094C2.17962 49.7413 1.27919 50.2406 0.776734 51.1107C0.00231531 52.4514 0.463298 54.1717 1.80398 54.9461C2.03606 55.0801 2.27931 55.1758 2.52735 55.238C2.33833 57.5398 2.21312 59.8814 2.1533 62.2612L2.12379 63.456L3.13349 62.8163C5.1473 61.5403 7.0957 60.2307 8.97712 58.8916C9.18209 59.1364 9.43252 59.3502 9.72522 59.5193C11.0659 60.2937 12.7862 59.8319 13.5606 58.4912C14.1101 57.5398 14.0368 56.3977 13.4689 55.5371C16.3736 53.2593 19.0868 50.9065 21.5951 48.4908C21.8001 48.7348 22.0497 48.9478 22.3416 49.1168C23.6823 49.8913 25.4026 49.4295 26.177 48.0888C26.6827 47.2131 26.6611 46.1755 26.2113 45.3444C27.2657 44.2008 28.2818 43.0435 29.2468 41.8839C29.5156 41.5609 29.7907 41.2259 30.0675 40.8798V40.8822ZM33.6588 27.422C34.1445 30.4925 33.3861 33.2082 32.0924 35.6455C30.8307 35.1717 29.3712 35.6654 28.6758 36.8705C28.5665 37.0603 28.4819 37.2581 28.4213 37.4591L19.9538 36.904C19.8963 36.2213 19.5917 35.5689 19.0765 35.0864L28.4485 18.8539C31.2112 20.5965 33.0607 23.636 33.6588 27.4212V27.422ZM10.841 54.2977L10.1471 51.0908L20.5974 47.6821C18.1074 50.0723 15.4133 52.4004 12.5286 54.655C11.9982 54.3504 11.408 54.2387 10.841 54.2977ZM20.9778 46.2154L9.87516 49.837L7.42988 38.5414C7.72577 38.3204 7.98258 38.0381 8.17798 37.6984C8.23062 37.6074 8.27687 37.5149 8.31835 37.4208L14.4371 37.822C14.6166 38.5326 15.0704 39.1722 15.7539 39.567C16.4374 39.9618 17.2182 40.0344 17.9232 39.835L21.4356 45.0924C21.3933 45.1538 21.3519 45.2168 21.3144 45.283C21.1429 45.5805 21.0321 45.8964 20.9778 46.2162V46.2154ZM17.7278 18.0763C19.0175 17.6089 23.2748 16.3456 27.3287 18.2414L17.9719 34.4484C17.2971 34.2434 16.5785 34.3056 15.9589 34.5975L11.2445 27.5416C11.3881 27.3885 11.5173 27.217 11.6266 27.0272C12.2574 25.9353 12.0676 24.5915 11.2517 23.7118C12.7439 21.2545 14.7538 19.1546 17.7278 18.0763ZM8.53847 29.6782C8.6908 29.2627 8.84792 28.844 9.01141 28.4237C9.41178 28.4492 9.81136 28.3894 10.183 28.2498L14.9555 35.3926C14.8718 35.4979 14.7952 35.6112 14.7258 35.7308C14.5759 35.99 14.473 36.2628 14.4132 36.5411L8.54963 36.1567C8.50258 35.2363 8.0065 34.3566 7.15074 33.863C7.14276 33.8582 7.13399 33.8542 7.12601 33.8494C7.56785 32.4314 8.04 31.0356 8.53847 29.6782ZM6.31491 39.4203L8.65571 50.2342L5.68883 51.2016C5.45036 50.7494 5.08668 50.357 4.61294 50.0835C4.53398 50.038 4.45343 49.9965 4.37208 49.9599C4.84822 46.3198 5.49742 42.8011 6.3157 39.4203H6.31491ZM3.46607 61.0888C3.53386 59.1173 3.6487 57.1729 3.80742 55.2572C4.55312 55.0945 5.23024 54.6303 5.64018 53.9189C5.90975 53.4523 6.02859 52.9403 6.01423 52.4378L8.92688 51.488L9.62632 54.718C9.25467 54.9525 8.93246 55.2779 8.69798 55.6847C8.32552 56.3299 8.23939 57.0636 8.3997 57.7367C6.8038 58.8764 5.15926 59.9946 3.46607 61.0888ZM25.1498 44.2542C24.2693 43.7462 23.2253 43.7701 22.3927 44.2263L19.0438 39.2137C19.2543 39.0231 19.4394 38.7974 19.5893 38.5382C19.6587 38.4185 19.7177 38.2949 19.7671 38.1705L28.3392 38.732C28.4261 39.2536 28.659 39.7481 29.0203 40.1508C28.7699 40.4619 28.5178 40.7681 28.2674 41.0696C27.3415 42.1814 26.3692 43.2916 25.3595 44.3898C25.2926 44.3427 25.2224 44.2973 25.1498 44.2558V44.2542Z" fill="#FF8156"/>
</g>
<defs>
<clipPath id="clip0_234_1218">
<rect width="299.831" height="63.7035" fill="white" transform="translate(0.82666 0.148438)"/>
</clipPath>
<clipPath id="clip1_234_1218">
<rect width="245.819" height="32.2419" fill="white" transform="translate(54.4437 5.07275)"/>
</clipPath>
<clipPath id="clip2_234_1218">
<rect width="43.0556" height="63.3085" fill="white" transform="translate(0.401855 0.148438)"/>
</clipPath>
</defs>
</svg>
