<svg width="39" height="58" viewBox="0 0 39 58" fill="none" xmlns="http://www.w3.org/2000/svg">
<g clip-path="url(#clip0_236_1880)">
<path d="M26.006 15.8864C26.2538 16.043 26.4931 16.211 26.7261 16.3884L34.8928 13.6942C35.0645 13.9527 35.294 14.176 35.5763 14.3426C36.5744 14.9307 37.8562 14.5803 38.4327 13.562C39.0092 12.5438 38.6657 11.2362 37.6675 10.6481C36.6694 10.06 35.3876 10.4104 34.8111 11.4286C34.6014 11.7984 34.5141 12.207 34.5352 12.6048L26.3411 15.3084L32.5966 4.25435C33.4822 4.48557 34.4472 4.1014 34.9266 3.25479C35.503 2.23656 35.1595 0.928952 34.1614 0.340849C33.1633 -0.247253 31.8815 0.103167 31.305 1.1214C30.8263 1.96729 30.9826 3.0128 31.6217 3.67918L25.4338 14.6133L23.6001 5.87217C23.8458 5.6984 24.0583 5.46862 24.2174 5.18785C24.7939 4.16962 24.4504 2.86201 23.4523 2.2739C22.4542 1.6858 21.1724 2.03622 20.5959 3.05445C20.0194 4.07268 20.3629 5.38029 21.361 5.9684C21.7277 6.18454 22.1332 6.27358 22.5274 6.24916L24.3737 15.0499C24.9206 15.2696 25.4676 15.5446 26.0067 15.8857L26.006 15.8864Z" fill="black"/>
<path d="M26.8944 36.7307C28.0186 37.1888 29.3356 36.7472 29.9578 35.6464C30.516 34.6598 30.3456 33.4448 29.6192 32.6528C29.772 32.3641 29.9177 32.0718 30.0542 31.7745C31.1917 29.2972 31.5592 26.8952 31.177 24.4315C30.6455 21.002 29.0765 18.1807 26.7262 16.3877C26.4939 16.2103 26.2539 16.043 26.0061 15.8857C25.4669 15.5446 24.92 15.2696 24.3731 15.0499C20.5924 13.5333 16.8069 14.6779 15.6201 15.1167C13.3528 15.9547 11.5058 17.4425 9.9734 19.6642C9.7573 19.978 9.55246 20.3012 9.35608 20.63C8.23969 20.1949 6.94311 20.6387 6.3272 21.728C5.64441 22.9336 6.04986 24.4811 7.231 25.179C7.09304 25.5417 6.96141 25.8993 6.83612 26.2468C6.38773 27.4927 5.96258 28.7744 5.56487 30.0763C4.66248 30.0275 3.765 30.4842 3.28354 31.3351C2.60005 32.5422 3.00691 34.0911 4.19016 34.7883C4.40344 34.914 4.62798 35.003 4.85605 35.0583C4.12047 38.1446 3.53694 41.3572 3.10827 44.6783C2.28118 44.7071 1.48648 45.1566 1.04303 45.94C0.35954 47.1471 0.766394 48.696 1.94965 49.3932C2.15448 49.5138 2.36917 49.6 2.58808 49.656C2.42126 51.7284 2.31075 53.8367 2.25796 55.9794L2.23191 57.0551L3.12305 56.4792C4.90039 55.3302 6.62002 54.1512 8.28052 52.9455C8.46142 53.166 8.68245 53.3584 8.94078 53.5106C10.124 54.2079 11.6423 53.7921 12.3258 52.5851C12.8108 51.7284 12.7461 50.7001 12.2449 49.9253C14.8085 47.8745 17.2031 45.7562 19.4169 43.5811C19.5978 43.8009 19.8181 43.9926 20.0758 44.1448C21.259 44.8421 22.7773 44.4263 23.4608 43.2192C23.9071 42.4308 23.8881 41.4966 23.4911 40.7483C24.4216 39.7186 25.3184 38.6767 26.1701 37.6326C26.4073 37.3418 26.6502 37.0402 26.8944 36.7285V36.7307ZM30.0641 24.6118C30.4928 27.3763 29.8234 29.8214 28.6816 32.0158C27.5681 31.5893 26.2799 32.0338 25.6661 33.1188C25.5697 33.2897 25.4951 33.4678 25.4416 33.6487L17.9683 33.1489C17.9176 32.5343 17.6487 31.9469 17.194 31.5125L25.4655 16.8975C27.9038 18.4665 29.5362 21.2038 30.0641 24.6118ZM9.92553 48.8094L9.31314 45.922L18.5363 42.853C16.3388 45.0051 13.961 47.1011 11.415 49.1311C10.9469 48.8568 10.426 48.7563 9.92553 48.8094ZM18.8721 41.5325L9.07311 44.7932L6.91495 34.6231C7.1761 34.4242 7.40276 34.17 7.57521 33.8641C7.62167 33.7823 7.66249 33.699 7.6991 33.6143L13.0994 33.9754C13.2578 34.6152 13.6583 35.1911 14.2615 35.5466C14.8648 35.902 15.5539 35.9674 16.1762 35.7879L19.2761 40.5214C19.2388 40.5767 19.2022 40.6334 19.1691 40.693C19.0178 40.9609 18.92 41.2445 18.8721 41.5325ZM16.0037 16.1974C17.1419 15.7766 20.8993 14.6391 24.4772 16.346L16.2191 30.938C15.6236 30.7534 14.9894 30.8095 14.4425 31.0723L10.2817 24.7195C10.4084 24.5816 10.5224 24.4272 10.6189 24.2563C11.1757 23.2733 11.0081 22.0633 10.288 21.2713C11.605 19.0589 13.3789 17.1682 16.0037 16.1974ZM7.89337 26.6432C8.02782 26.2691 8.16649 25.8921 8.31079 25.5137C8.66414 25.5366 9.0168 25.4828 9.34481 25.3571L13.5569 31.7882C13.483 31.883 13.4155 31.9849 13.3542 32.0927C13.2219 32.326 13.1311 32.5716 13.0783 32.8222L7.90323 32.4761C7.8617 31.6474 7.42387 30.8554 6.66859 30.4109C6.66155 30.4066 6.65381 30.403 6.64677 30.3987C7.03673 29.122 7.45344 27.8654 7.89337 26.6432ZM5.9309 35.4145L7.99685 45.1508L5.37834 46.0219C5.16788 45.6147 4.8469 45.2614 4.42878 45.0151C4.3591 44.9742 4.288 44.9368 4.2162 44.9038C4.63643 41.6265 5.2087 38.4584 5.9309 35.4145ZM3.41657 54.9238C3.47641 53.1487 3.57777 51.3981 3.71784 49.6733C4.37599 49.5268 4.9736 49.1089 5.3354 48.4683C5.57332 48.0483 5.6782 47.5873 5.66553 47.1349L8.23617 46.2796L8.85349 49.1878C8.52547 49.399 8.2411 49.6919 8.03415 50.0582C7.70543 50.6391 7.62941 51.2997 7.77089 51.9058C6.36239 52.9319 4.91095 53.9386 3.41657 54.9238ZM22.5542 39.7667C21.7771 39.3093 20.8557 39.3308 20.1208 39.7416L17.1651 35.2285C17.351 35.0569 17.5143 34.8536 17.6466 34.6203C17.7078 34.5126 17.7599 34.4013 17.8036 34.2892L25.3691 34.7948C25.4458 35.2644 25.6513 35.7096 25.9702 36.0722C25.7492 36.3523 25.5268 36.628 25.3057 36.8994C24.4885 37.9004 23.6304 38.9 22.7393 39.8888C22.6802 39.8464 22.6182 39.8055 22.5542 39.7681V39.7667Z" fill="black"/>
</g>
<defs>
<clipPath id="clip0_236_1880">
<rect width="38" height="57" fill="white" transform="translate(0.712158 0.0557861)"/>
</clipPath>
</defs>
</svg>
