<svg width="79" height="81" viewBox="0 0 79 81" fill="none" xmlns="http://www.w3.org/2000/svg">
<path d="M46.8537 7.92152C46.8537 12.1859 43.3968 15.6428 39.1324 15.6428C34.868 15.6428 31.4111 12.1859 31.4111 7.92152C31.4111 3.65715 34.868 0.200195 39.1324 0.200195C43.3968 0.200195 46.8537 3.65715 46.8537 7.92152Z" fill="black"/>
<path d="M24.4453 17.687C24.4453 21.9514 20.9883 25.4084 16.724 25.4084C12.4596 25.4084 9.00264 21.9514 9.00264 17.687C9.00264 13.4227 12.4596 9.96571 16.724 9.96571C20.9883 9.96571 24.4453 13.4227 24.4453 17.687Z" fill="black"/>
<path d="M24.4453 62.7753C24.4453 67.0396 20.9883 70.4966 16.724 70.4966C12.4596 70.4966 9.00264 67.0396 9.00264 62.7753C9.00264 58.5109 12.4596 55.0539 16.724 55.0539C20.9883 55.0539 24.4453 58.5109 24.4453 62.7753Z" fill="black"/>
<path d="M69.2624 17.687C69.2624 21.9514 65.8055 25.4084 61.5411 25.4084C57.2768 25.4084 53.8198 21.9514 53.8198 17.687C53.8198 13.4227 57.2768 9.96571 61.5411 9.96571C65.8055 9.96571 69.2624 13.4227 69.2624 17.687Z" fill="black"/>
<path d="M69.2624 62.8332C69.2624 67.0976 65.8055 70.5546 61.5411 70.5546C57.2768 70.5546 53.8198 67.0976 53.8198 62.8332C53.8198 58.5689 57.2768 55.1119 61.5411 55.1119C65.8055 55.1119 69.2624 58.5689 69.2624 62.8332Z" fill="black"/>
<path d="M78.8864 40.7922C78.8864 45.0566 75.4294 48.5135 71.165 48.5135C66.9007 48.5135 63.4437 45.0566 63.4437 40.7922C63.4437 36.5278 66.9007 33.0709 71.165 33.0709C75.4294 33.0709 78.8864 36.5278 78.8864 40.7922Z" fill="black"/>
<path d="M47.2214 72.4789C47.2214 76.7432 43.7644 80.2002 39.5001 80.2002C35.2357 80.2002 31.7787 76.7432 31.7787 72.4789C31.7787 68.2145 35.2357 64.7575 39.5001 64.7575C43.7644 64.7575 47.2214 68.2145 47.2214 72.4789Z" fill="black"/>
<path d="M15.5564 40.7922C15.5564 45.0566 12.0995 48.5135 7.83509 48.5135C3.57072 48.5135 0.11377 45.0566 0.11377 40.7922C0.11377 36.5278 3.57072 33.0709 7.83509 33.0709C12.0995 33.0709 15.5564 36.5278 15.5564 40.7922Z" fill="black"/>
<path fill-rule="evenodd" clip-rule="evenodd" d="M39.5001 28.0167C32.4444 28.0167 26.7246 33.7365 26.7246 40.7922C26.7246 47.8479 32.4444 53.5677 39.5001 53.5677C46.5558 53.5677 52.2755 47.8479 52.2755 40.7922C52.2755 33.7365 46.5558 28.0167 39.5001 28.0167ZM23.6361 40.7922C23.6361 32.0307 30.7386 24.9282 39.5001 24.9282C48.2615 24.9282 55.3641 32.0307 55.3641 40.7922C55.3641 49.5536 48.2615 56.6562 39.5001 56.6562C30.7386 56.6562 23.6361 49.5536 23.6361 40.7922Z" fill="black"/>
<path fill-rule="evenodd" clip-rule="evenodd" d="M37.7996 26.4725V15.1684H40.8881V26.4725H37.7996Z" fill="black"/>
<path fill-rule="evenodd" clip-rule="evenodd" d="M13.8763 38.8068H25.1803V41.8953H13.8763V38.8068Z" fill="black"/>
<path fill-rule="evenodd" clip-rule="evenodd" d="M53.8199 38.8068H65.124V41.8953H53.8199V38.8068Z" fill="black"/>
<path fill-rule="evenodd" clip-rule="evenodd" d="M37.7996 66.2326V55.1119H40.8881V66.2326H37.7996Z" fill="black"/>
<path fill-rule="evenodd" clip-rule="evenodd" d="M48.4664 28.6927L59.472 17.687L61.656 19.871L50.6503 30.8766L48.4664 28.6927Z" fill="black"/>
<path fill-rule="evenodd" clip-rule="evenodd" d="M17.5856 59.9267L28.5913 48.9211L30.7752 51.105L19.7695 62.1106L17.5856 59.9267Z" fill="black"/>
<path fill-rule="evenodd" clip-rule="evenodd" d="M20.4054 19.9055L31.4111 30.9112L29.2271 33.0951L18.2215 22.0894L20.4054 19.9055Z" fill="black"/>
<path fill-rule="evenodd" clip-rule="evenodd" d="M49.6321 48.9211L60.6378 59.9267L58.4539 62.1107L47.4482 51.105L49.6321 48.9211Z" fill="black"/>
</svg>
