<svg width="72" height="81" viewBox="0 0 72 81" fill="none" xmlns="http://www.w3.org/2000/svg">
<path d="M50.3772 49.5994L43.2507 45.4639V53.735L50.3772 57.8705L57.5037 53.735V45.4639L50.3772 49.5994Z" fill="black"/>
<path d="M50.3772 57.8705L43.2507 53.735V45.4639L50.3772 49.5994V57.8705Z" fill="#7D7D7D"/>
<path d="M57.5037 53.735L50.3772 57.8705V49.5994L57.5037 45.4639V53.735Z" fill="black"/>
<path d="M50.3772 49.5992L43.2507 45.4637L50.3772 41.3281L57.5037 45.4637L50.3772 49.5992Z" fill="#DCDCDC"/>
<path d="M57.5037 53.6751L50.3772 49.5396V57.8107L57.5037 61.9462L64.6301 57.8107V49.5396L57.5037 53.6751Z" fill="black"/>
<path d="M57.5037 61.9462L50.3772 57.8107V49.5396L57.5037 53.6751V61.9462Z" fill="#7D7D7D"/>
<path d="M64.6301 57.8107L57.5037 61.9462V53.6751L64.6301 49.5396V57.8107Z" fill="black"/>
<path d="M57.5037 53.6749L50.3772 49.5394L57.5037 45.4038L64.6301 49.5394L57.5037 53.6749Z" fill="#DCDCDC"/>
<path d="M21.8713 49.5994L14.7449 45.4639V53.735L21.8713 57.8705L28.9978 53.735V45.4639L21.8713 49.5994Z" fill="black"/>
<path d="M21.8713 57.8705L14.7449 53.735V45.4639L21.8713 49.5994V57.8705Z" fill="#7D7D7D"/>
<path d="M28.9978 53.735L21.8713 57.8705V49.5994L28.9978 45.4639V53.735Z" fill="black"/>
<path d="M21.8713 49.5992L14.7449 45.4637L21.8713 41.3281L28.9978 45.4637L21.8713 49.5992Z" fill="#DCDCDC"/>
<path d="M36.1243 41.6883L28.9978 37.5527V45.8238L36.1243 49.9594L43.2507 45.8238V37.5527L36.1243 41.6883Z" fill="black"/>
<path d="M36.1243 49.9594L28.9978 45.8238V37.5527L36.1243 41.6883V49.9594Z" fill="#7D7D7D"/>
<path d="M43.2507 45.8238L36.1243 49.9594V41.6883L43.2507 37.5527V45.8238Z" fill="black"/>
<path d="M36.1243 41.6881L28.9978 37.5525L36.1243 33.417L43.2507 37.5525L36.1243 41.6881Z" fill="#DCDCDC"/>
<path d="M14.7449 53.6751L7.61841 49.5396V57.8107L14.7449 61.9462L21.8713 57.8107V49.5396L14.7449 53.6751Z" fill="black"/>
<path d="M14.7449 61.9462L7.61841 57.8107V49.5396L14.7449 53.6751V61.9462Z" fill="#7D7D7D"/>
<path d="M21.8713 57.8107L14.7449 61.9462V53.6751L21.8713 49.5396V57.8107Z" fill="black"/>
<path d="M14.7449 53.6749L7.61841 49.5394L14.7449 45.4038L21.8713 49.5394L14.7449 53.6749Z" fill="#DCDCDC"/>
<path d="M7.61841 57.7508L0.491943 53.6152V61.8863L7.61841 66.0219L14.7449 61.8863V53.6152L7.61841 57.7508Z" fill="black"/>
<path d="M7.61841 66.0219L0.491943 61.8863V53.6152L7.61841 57.7508V66.0219Z" fill="#7D7D7D"/>
<path d="M14.7449 61.8863L7.61841 66.0219V57.7508L14.7449 53.6152V61.8863Z" fill="black"/>
<path d="M7.61841 57.7506L0.491943 53.615L7.61841 49.4795L14.7449 53.615L7.61841 57.7506Z" fill="#DCDCDC"/>
<path d="M9.0437 42.4075L1.91724 38.272V46.5431L9.0437 50.6786L16.1702 46.5431V38.272L9.0437 42.4075Z" fill="black"/>
<path d="M9.04371 50.6786L1.91724 46.5431V38.272L9.04371 42.4075V50.6786Z" fill="#7D7D7D"/>
<path d="M16.1702 46.5431L9.0437 50.6786V42.4075L16.1702 38.272V46.5431Z" fill="black"/>
<path d="M9.0437 42.4073L1.91724 38.2718L9.0437 34.1362L16.1702 38.2718L9.0437 42.4073Z" fill="#DCDCDC"/>
<path d="M9.0437 42.4075L1.91724 38.272V46.5431L9.0437 50.6786L16.1702 46.5431V38.272L9.0437 42.4075Z" fill="black"/>
<path d="M9.04371 50.6786L1.91724 46.5431V38.272L9.04371 42.4075V50.6786Z" fill="#7D7D7D"/>
<path d="M16.1702 46.5431L9.0437 50.6786V42.4075L16.1702 38.272V46.5431Z" fill="black"/>
<path d="M9.0437 42.4073L1.91724 38.2718L9.0437 34.1362L16.1702 38.2718L9.0437 42.4073Z" fill="#DCDCDC"/>
<path d="M9.0437 34.2562L1.91724 30.1206V38.3917L9.0437 42.5273L16.1702 38.3917V30.1206L9.0437 34.2562Z" fill="black"/>
<path d="M9.04371 42.5273L1.91724 38.3917V30.1206L9.04371 34.2562V42.5273Z" fill="#7D7D7D"/>
<path d="M16.1702 38.3917L9.0437 42.5273V34.2562L16.1702 30.1206V38.3917Z" fill="black"/>
<path d="M9.0437 34.256L1.91724 30.1204L9.0437 25.9849L16.1702 30.1204L9.0437 34.256Z" fill="#DCDCDC"/>
<path d="M23.2966 17.9539L16.1702 13.8184V22.0895L23.2966 26.225L30.4231 22.0895V13.8184L23.2966 17.9539Z" fill="black"/>
<path d="M23.2966 26.225L16.1702 22.0895V13.8184L23.2966 17.9539V26.225Z" fill="#7D7D7D"/>
<path d="M30.4231 22.0895L23.2966 26.225V17.9539L30.4231 13.8184V22.0895Z" fill="black"/>
<path d="M23.2966 17.9537L16.1702 13.8182L23.2966 9.68262L30.4231 13.8182L23.2966 17.9537Z" fill="#DCDCDC"/>
<path d="M50.4277 64.1502L43.3013 60.0146V68.2857L50.4277 72.4213L57.5542 68.2857V60.0146L50.4277 64.1502Z" fill="black"/>
<path d="M50.4277 72.4213L43.3013 68.2857V60.0146L50.4277 64.1502V72.4213Z" fill="#7D7D7D"/>
<path d="M57.5542 68.2857L50.4277 72.4213V64.1502L57.5542 60.0146V68.2857Z" fill="black"/>
<path d="M50.4277 64.15L43.3013 60.0145L50.4277 55.8789L57.5542 60.0145L50.4277 64.15Z" fill="#DCDCDC"/>
<path d="M16.1702 22.0296L9.0437 17.894V26.1651L16.1702 30.3007L23.2966 26.1651V17.894L16.1702 22.0296Z" fill="black"/>
<path d="M16.1702 30.3007L9.0437 26.1651V17.894L16.1702 22.0296V30.3007Z" fill="#7D7D7D"/>
<path d="M23.2966 26.1651L16.1702 30.3007V22.0296L23.2966 17.894V26.1651Z" fill="black"/>
<path d="M16.1702 22.0294L9.0437 17.8938L16.1702 13.7583L23.2966 17.8938L16.1702 22.0294Z" fill="#DCDCDC"/>
<path d="M9.0437 26.1048L1.91724 21.9692V30.2403L9.0437 34.3759L16.1702 30.2403V21.9692L9.0437 26.1048Z" fill="black"/>
<path d="M9.04371 34.3759L1.91724 30.2403V21.9692L9.04371 26.1048V34.3759Z" fill="#7D7D7D"/>
<path d="M16.1702 30.2403L9.0437 34.3759V26.1048L16.1702 21.9692V30.2403Z" fill="black"/>
<path d="M9.0437 26.1046L1.91724 21.969L9.0437 17.8335L16.1702 21.969L9.0437 26.1046Z" fill="#DCDCDC"/>
<path d="M43.4331 68.2259L36.3066 64.0903V72.3614L43.4331 76.497L50.5596 72.3614V64.0903L43.4331 68.2259Z" fill="black"/>
<path d="M43.4331 76.497L36.3066 72.3614V64.0903L43.4331 68.2259V76.497Z" fill="#7D7D7D"/>
<path d="M50.5596 72.3614L43.4331 76.497V68.2259L50.5596 64.0903V72.3614Z" fill="black"/>
<path d="M43.4331 68.2257L36.3066 64.0901L43.4331 59.9546L50.5596 64.0901L43.4331 68.2257Z" fill="#DCDCDC"/>
<path d="M22.3464 63.9842L15.22 59.8486L15.22 68.1197L22.3464 72.2553L29.4729 68.1197V59.8486L22.3464 63.9842Z" fill="black"/>
<path d="M22.3464 72.2553L15.22 68.1197L15.22 59.8486L22.3464 63.9842V72.2553Z" fill="#7D7D7D"/>
<path d="M29.4729 68.1197L22.3464 72.2553V63.9842L29.4729 59.8486V68.1197Z" fill="black"/>
<path d="M22.3464 63.984L15.22 59.8484L22.3464 55.7129L29.4729 59.8484L22.3464 63.984Z" fill="#DCDCDC"/>
<path d="M29.407 68.1243L22.2805 63.9888L22.2805 72.2599L29.407 76.3954L36.5334 72.2599L36.5334 63.9888L29.407 68.1243Z" fill="black"/>
<path d="M29.407 76.3954L22.2805 72.2599L22.2805 63.9888L29.407 68.1243L29.407 76.3954Z" fill="#7D7D7D"/>
<path d="M36.5334 72.2599L29.407 76.3954L29.407 68.1243L36.5334 63.9888L36.5334 72.2599Z" fill="black"/>
<path d="M29.407 68.1241L22.2805 63.9886L29.407 59.853L36.5334 63.9886L29.407 68.1241Z" fill="#DCDCDC"/>
<path d="M36.4385 72.3016L29.312 68.166L29.312 76.4371L36.4385 80.5727L43.5649 76.4371L43.5649 68.166L36.4385 72.3016Z" fill="black"/>
<path d="M36.4385 80.5727L29.312 76.4371L29.312 68.166L36.4385 72.3016L36.4385 80.5727Z" fill="#7D7D7D"/>
<path d="M43.5649 76.4371L36.4385 80.5727L36.4385 72.3016L43.5649 68.166L43.5649 76.4371Z" fill="black"/>
<path d="M36.4385 72.3014L29.312 68.1658L36.4385 64.0303L43.5649 68.1658L36.4385 72.3014Z" fill="#DCDCDC"/>
<path d="M64.6301 57.7508L57.5037 53.6152V61.8863L64.6301 66.0219L71.7566 61.8863V53.6152L64.6301 57.7508Z" fill="black"/>
<path d="M64.6301 66.0219L57.5037 61.8863V53.6152L64.6301 57.7508V66.0219Z" fill="#7D7D7D"/>
<path d="M71.7566 61.8863L64.6301 66.0219V57.7508L71.7566 53.6152V61.8863Z" fill="black"/>
<path d="M64.6301 57.7506L57.5037 53.615L64.6301 49.4795L71.7566 53.615L64.6301 57.7506Z" fill="#DCDCDC"/>
<path d="M63.2048 42.1678L70.3313 38.0322V46.3033L63.2048 50.4389L56.0784 46.3033V38.0322L63.2048 42.1678Z" fill="black"/>
<path d="M63.2048 50.4389L70.3313 46.3033V38.0322L63.2048 42.1678V50.4389Z" fill="#7D7D7D"/>
<path d="M56.0784 46.3033L63.2048 50.4389V42.1678L56.0784 38.0322V46.3033Z" fill="black"/>
<path d="M63.2048 42.1676L70.3313 38.032L63.2048 33.8965L56.0784 38.032L63.2048 42.1676Z" fill="#DCDCDC"/>
<path d="M63.2048 42.1678L56.0784 38.0322V46.3033L63.2048 50.4389L70.3313 46.3033V38.0322L63.2048 42.1678Z" fill="black"/>
<path d="M63.2048 50.4389L56.0784 46.3033V38.0322L63.2048 42.1678V50.4389Z" fill="#7D7D7D"/>
<path d="M70.3313 46.3033L63.2048 50.4389V42.1678L70.3313 38.0322V46.3033Z" fill="black"/>
<path d="M63.2048 42.1676L56.0784 38.032L63.2048 33.8965L70.3313 38.032L63.2048 42.1676Z" fill="#DCDCDC"/>
<path d="M63.2048 34.0164L56.0784 29.8809V38.152L63.2048 42.2875L70.3313 38.152V29.8809L63.2048 34.0164Z" fill="black"/>
<path d="M63.2048 42.2875L56.0784 38.152V29.8809L63.2048 34.0164V42.2875Z" fill="#7D7D7D"/>
<path d="M70.3313 38.152L63.2048 42.2875V34.0164L70.3313 29.8809V38.152Z" fill="black"/>
<path d="M63.2048 34.0162L56.0784 29.8807L63.2048 25.7451L70.3313 29.8807L63.2048 34.0162Z" fill="#DCDCDC"/>
<path d="M48.9519 17.7142L41.8254 13.5786V21.8497L48.9519 25.9853L56.0784 21.8497V13.5786L48.9519 17.7142Z" fill="black"/>
<path d="M48.9519 25.9853L41.8254 21.8497V13.5786L48.9519 17.7142V25.9853Z" fill="#7D7D7D"/>
<path d="M56.0784 21.8497L48.9519 25.9853V17.7142L56.0784 13.5786V21.8497Z" fill="black"/>
<path d="M48.9519 17.714L41.8254 13.5784L48.9519 9.44287L56.0784 13.5784L48.9519 17.714Z" fill="#DCDCDC"/>
<path d="M56.0784 21.7898L48.9519 17.6543V25.9254L56.0784 30.0609L63.2048 25.9254V17.6543L56.0784 21.7898Z" fill="black"/>
<path d="M56.0784 30.0609L48.9519 25.9254V17.6543L56.0784 21.7898V30.0609Z" fill="#7D7D7D"/>
<path d="M63.2048 25.9254L56.0784 30.0609V21.7898L63.2048 17.6543V25.9254Z" fill="black"/>
<path d="M56.0784 21.7897L48.9519 17.6541L56.0784 13.5186L63.2048 17.6541L56.0784 21.7897Z" fill="#DCDCDC"/>
<path d="M63.2048 25.865L56.0784 21.7295V30.0006L63.2048 34.1361L70.3313 30.0006V21.7295L63.2048 25.865Z" fill="black"/>
<path d="M63.2048 34.1361L56.0784 30.0006V21.7295L63.2048 25.865V34.1361Z" fill="#7D7D7D"/>
<path d="M70.3313 30.0006L63.2048 34.1361V25.865L70.3313 21.7295V30.0006Z" fill="black"/>
<path d="M63.2048 25.8648L56.0784 21.7293L63.2048 17.5938L70.3313 21.7293L63.2048 25.8648Z" fill="#DCDCDC"/>
<path d="M36.1243 25.2659L28.9978 21.1304V12.8593L36.1243 16.9948V25.2659Z" fill="#7D7D7D"/>
<path d="M36.1243 17.1147L28.9978 12.9791V4.70801L36.1243 8.84356V17.1147Z" fill="#7D7D7D"/>
<path d="M36.1243 33.417L28.9978 29.2815V21.0104L36.1243 25.1459V33.417Z" fill="#7D7D7D"/>
<path d="M43.2507 21.13L36.1243 25.2655V16.9944L43.2507 12.8589V21.13Z" fill="black"/>
<path d="M43.2507 12.9791L36.1243 17.1147V8.84356L43.2507 4.70801V12.9791Z" fill="black"/>
<path d="M43.2507 29.2814L36.1243 33.4169V25.1458L43.2507 21.0103V29.2814Z" fill="black"/>
<path d="M36.1243 8.84336L28.9978 4.70782L36.1243 0.572266L43.2507 4.70782L36.1243 8.84336Z" fill="#DCDCDC"/>
</svg>
