<svg width="54" height="41" viewBox="0 0 54 41" fill="none" xmlns="http://www.w3.org/2000/svg">
<path fill-rule="evenodd" clip-rule="evenodd" d="M19.5914 24.111L27.1381 29.271L34.4127 24.2524L50.7194 40.3404C50.2901 40.479 49.8314 40.5537 49.3541 40.5537H4.9114C4.32473 40.5537 3.76473 40.439 3.25007 40.2337L19.5914 24.111ZM53.7994 10.8897V36.1084C53.7994 36.767 53.6554 37.391 53.3994 37.9537L37.4154 22.183L53.7994 10.8897ZM0.466067 11.031L16.5781 22.0497L0.748734 37.671C0.561256 37.1714 0.465498 36.642 0.466067 36.1084V11.031ZM49.3541 0.553711C51.8074 0.553711 53.7994 2.54304 53.7994 4.99904V6.56171L27.1274 24.9484L0.466067 6.71371V4.99904C0.466067 2.54571 2.4554 0.553711 4.9114 0.553711H49.3541Z" fill="black"/>
</svg>
