<svg width="121" height="81" viewBox="0 0 121 81" fill="none" xmlns="http://www.w3.org/2000/svg">
<path d="M120.955 40.5263C120.955 44.6053 117.648 47.9119 113.569 47.9119C109.49 47.9119 106.183 44.6053 106.183 40.5263C106.183 36.4473 109.49 33.1407 113.569 33.1407C117.648 33.1407 120.955 36.4473 120.955 40.5263Z" fill="black"/>
<path d="M15.7259 40.5263C15.7259 44.6053 12.4192 47.9119 8.34023 47.9119C4.26125 47.9119 0.95459 44.6053 0.95459 40.5263C0.95459 36.4473 4.26125 33.1407 8.34023 33.1407C12.4192 33.1407 15.7259 36.4473 15.7259 40.5263Z" fill="black"/>
<path fill-rule="evenodd" clip-rule="evenodd" d="M61.7704 9.47606C43.4068 9.47607 24.4975 20.0052 7.67542 41.6591C7.04981 42.4644 5.88984 42.61 5.08455 41.9844C4.27925 41.3588 4.13359 40.1989 4.75919 39.3936C22.0121 17.1852 41.8903 5.78325 61.7704 5.78325C81.6664 5.78324 101.012 17.2021 117.186 39.4403C117.785 40.265 117.603 41.4198 116.778 42.0196C115.954 42.6194 114.799 42.437 114.199 41.6123C98.4725 19.9883 80.1182 9.47606 61.7704 9.47606Z" fill="black"/>
<path fill-rule="evenodd" clip-rule="evenodd" d="M60.1388 71.5765C78.5024 71.5765 97.4117 61.0474 114.234 39.3935C114.859 38.5882 116.019 38.4426 116.825 39.0682C117.63 39.6938 117.776 40.8537 117.15 41.659C99.8971 63.8674 80.0189 75.2694 60.1388 75.2694C40.2428 75.2694 20.8969 63.8505 4.72351 41.6123C4.12372 40.7876 4.30605 39.6328 5.13075 39.033C5.95544 38.4333 7.11023 38.6156 7.71002 39.4403C23.4367 61.0643 41.7909 71.5765 60.1388 71.5765Z" fill="black"/>
<path fill-rule="evenodd" clip-rule="evenodd" d="M60.9545 69.7301C77.0833 69.7301 90.1583 56.6551 90.1583 40.5263C90.1583 24.3975 77.0833 11.3225 60.9545 11.3225C44.8257 11.3225 31.7507 24.3975 31.7507 40.5263C31.7507 56.6551 44.8257 69.7301 60.9545 69.7301ZM60.9545 73.4229C79.1228 73.4229 93.8511 58.6946 93.8511 40.5263C93.8511 22.358 79.1228 7.62965 60.9545 7.62965C42.7862 7.62965 28.0579 22.358 28.0579 40.5263C28.0579 58.6946 42.7862 73.4229 60.9545 73.4229Z" fill="black"/>
<path d="M68.3402 8.27211C68.3402 12.3511 65.0336 15.6577 60.9546 15.6577C56.8756 15.6577 53.569 12.3511 53.569 8.27211C53.569 4.19314 56.8756 0.886475 60.9546 0.886475C65.0336 0.886475 68.3402 4.19314 68.3402 8.27211Z" fill="black"/>
<path d="M68.3402 73.4229C68.3402 77.5019 65.0336 80.8086 60.9546 80.8086C56.8756 80.8086 53.569 77.5019 53.569 73.4229C53.569 69.344 56.8756 66.0373 60.9546 66.0373C65.0336 66.0373 68.3402 69.344 68.3402 73.4229Z" fill="black"/>
</svg>
