<svg width="44" height="45" viewBox="0 0 44 45" fill="none" xmlns="http://www.w3.org/2000/svg">
<g clip-path="url(#clip0_236_1907)">
<mask id="mask0_236_1907" style="mask-type:alpha" maskUnits="userSpaceOnUse" x="0" y="0" width="44" height="45">
<path fill-rule="evenodd" clip-rule="evenodd" d="M0.670532 0.0341187H43.6705V44.0341H0.670532V0.0341187Z" fill="white"/>
</mask>
<g mask="url(#mask0_236_1907)">
<path fill-rule="evenodd" clip-rule="evenodd" d="M22.1705 44.0337C10.3455 44.0337 0.670532 34.1337 0.670532 21.9237C0.778032 9.82371 10.3455 -0.0762972 22.278 0.0337028C34.103 0.143703 43.6705 9.93371 43.6705 22.2537C43.563 34.2437 33.9955 44.0337 22.1705 44.0337Z" fill="black"/>
<path fill-rule="evenodd" clip-rule="evenodd" d="M24.213 19.3942L23.568 22.9142L29.6955 23.7942L29.2655 25.4442L23.2455 24.5642C22.8155 25.9942 22.6005 27.5342 22.063 28.8542C21.5255 30.3942 20.988 31.9342 20.343 33.3642C19.483 35.2342 17.978 36.5542 15.9355 36.8842C14.753 37.1042 13.463 36.9942 12.4955 36.2242C12.173 36.0042 11.8505 35.5642 11.8505 35.2342C11.8505 34.7942 12.0655 34.2442 12.388 34.0242C12.603 33.9142 13.1405 34.0242 13.463 34.1342C13.7855 34.4642 14.108 34.9042 14.323 35.3442C14.968 36.2242 15.828 36.3342 16.688 35.6742C17.6555 34.7942 18.193 33.5842 18.5155 32.3742C19.1605 29.7342 19.8055 27.2042 20.343 24.5642V24.1242L14.6455 23.2442L14.8605 21.5942L20.773 22.4742L21.5255 19.0642L15.398 18.0742L15.613 16.3142L21.9555 17.1942C22.1705 16.5342 22.278 15.9842 22.493 15.4342C23.0305 13.4542 23.568 11.4742 24.858 9.71419C26.148 7.95419 27.653 6.85419 29.9105 6.96419C30.878 6.96419 31.8455 7.29419 32.4905 8.06419C32.598 8.17419 32.813 8.39419 32.813 8.61419C32.813 9.05419 32.813 9.60419 32.4905 9.93419C32.0605 10.2642 31.523 10.1542 31.093 9.71419C30.7705 9.38419 30.5555 9.05419 30.233 8.72419C29.588 7.84419 28.6205 7.73419 27.868 8.50419C27.3305 9.05419 26.793 9.82419 26.4705 10.5942C25.718 12.9042 25.1805 15.3242 24.428 17.7442L30.3405 18.6242L29.9105 20.2742L24.213 19.3942Z" fill="white"/>
</g>
</g>
<defs>
<clipPath id="clip0_236_1907">
<rect width="43" height="44" fill="white" transform="translate(0.670532 0.0341187)"/>
</clipPath>
</defs>
</svg>
