<svg width="104" height="101" viewBox="0 0 104 101" fill="none" xmlns="http://www.w3.org/2000/svg">
<path fill-rule="evenodd" clip-rule="evenodd" d="M41.0887 2.24837C41.0887 1.54311 41.6604 0.971385 42.3657 0.971385H60.8655V3.52535H43.6427V15.393C43.6427 15.9152 43.3248 16.3847 42.8399 16.5786L30.669 21.447C30.1798 21.6427 29.6207 21.5178 29.2612 21.1327L23.2691 14.7126L13.5866 22.7814L20.3874 29.582C20.7402 29.9348 20.8552 30.4606 20.6819 30.9285L15.8135 44.0731C15.628 44.574 15.1503 44.9066 14.6161 44.9066H2.74842V58.9051H14.6161C15.1168 58.9051 15.5714 59.1978 15.7786 59.6536L20.6469 70.3641C20.8373 70.7828 20.7877 71.2716 20.5172 71.6436L13.4881 81.3083L23.3395 88.2862L29.4058 83.5198C29.7765 83.2286 30.2775 83.1652 30.709 83.3551L42.88 88.7103C43.3435 88.9142 43.6427 89.3728 43.6427 89.8791V98.3389H57.4577V100.893H42.3657C41.6604 100.893 41.0887 100.321 41.0887 99.6159V90.7124L30.3815 86.0012L24.168 90.8833C23.7235 91.2325 23.1022 91.2479 22.6409 90.9212L10.9567 82.645C10.6781 82.4476 10.4901 82.1469 10.4348 81.8099C10.3794 81.473 10.4613 81.128 10.6621 80.8518L18.0139 70.7433L13.7938 61.459H1.47144C0.766182 61.459 0.194458 60.8873 0.194458 60.1821V43.6296C0.194458 42.9243 0.766182 42.3526 1.47144 42.3526H13.7273L18.0026 30.8091L10.7919 23.5985C10.5382 23.3448 10.4029 22.9961 10.4192 22.6377C10.4354 22.2793 10.6017 21.9442 10.8773 21.7146L22.5615 11.9778C23.0819 11.5441 23.8504 11.5923 24.3126 12.0875L30.5319 18.7511L41.0887 14.5284V2.24837Z" fill="black"/>
<path fill-rule="evenodd" clip-rule="evenodd" d="M62.8733 2.16986C62.8733 1.46461 62.3016 0.892883 61.5963 0.892883H43.0965V3.44684H60.3193V15.3145C60.3193 15.8367 60.6372 16.3062 61.1221 16.5001L73.293 21.3685C73.7822 21.5642 74.3413 21.4393 74.7008 21.0542L80.6929 14.6341L90.3754 22.7029L83.5746 29.5035C83.2218 29.8563 83.1068 30.3821 83.2801 30.85L88.1485 43.9946C88.334 44.4955 88.8117 44.8281 89.3459 44.8281H101.214V58.8266H89.3459C88.8452 58.8266 88.3906 59.1193 88.1834 59.5751L83.315 70.2856C83.1247 70.7043 83.1743 71.1931 83.4448 71.5651L90.4739 81.2298L80.6226 88.2077L74.5562 83.4413C74.1855 83.1501 73.6845 83.0867 73.253 83.2766L61.082 88.6318C60.6185 88.8357 60.3193 89.2943 60.3193 89.8006V98.2604H46.5043V100.814H61.5963C62.3016 100.814 62.8733 100.243 62.8733 99.5374V90.6339L73.5805 85.9227L79.794 90.8048C80.2385 91.154 80.8598 91.1694 81.3211 90.8427L93.0053 82.5665C93.2839 82.3691 93.4719 82.0684 93.5272 81.7314C93.5826 81.3945 93.5007 81.0495 93.2999 80.7733L85.9481 70.6648L90.1682 61.3805H102.491C103.196 61.3805 103.768 60.8088 103.768 60.1036V43.5511C103.768 42.8458 103.196 42.2741 102.491 42.2741H90.2347L85.9594 30.7306L93.1701 23.52C93.4238 23.2663 93.5591 22.9176 93.5428 22.5592C93.5266 22.2008 93.3603 21.8657 93.0847 21.6361L81.4005 11.8993C80.8801 11.4656 80.1116 11.5138 79.6494 12.009L73.4301 18.6726L62.8733 14.4499V2.16986Z" fill="black"/>
<path d="M65.4626 48.4746C65.4626 51.2956 63.1757 53.5825 60.3547 53.5825C57.5337 53.5825 55.2468 51.2956 55.2468 48.4746C55.2468 45.6536 57.5337 43.3667 60.3547 43.3667C63.1757 43.3667 65.4626 45.6536 65.4626 48.4746Z" fill="black"/>
<path d="M49.55 48.4746C49.55 51.2956 47.2631 53.5825 44.4421 53.5825C41.6211 53.5825 39.3342 51.2956 39.3342 48.4746C39.3342 45.6536 41.6211 43.3667 44.4421 43.3667C47.2631 43.3667 49.55 45.6536 49.55 48.4746Z" fill="black"/>
<path fill-rule="evenodd" clip-rule="evenodd" d="M51.9809 26.7963C38.6727 26.7963 27.8842 37.5847 27.8842 50.8929C27.8842 64.2011 38.6727 74.9895 51.9809 74.9895C65.2891 74.9895 76.0775 64.2011 76.0775 50.8929C76.0775 37.5847 65.2891 26.7963 51.9809 26.7963ZM25.3303 50.8929C25.3303 36.1742 37.2621 24.2423 51.9809 24.2423C66.6996 24.2423 78.6315 36.1742 78.6315 50.8929C78.6315 65.6116 66.6996 77.5435 51.9809 77.5435C37.2621 77.5435 25.3303 65.6116 25.3303 50.8929Z" fill="black"/>
<path fill-rule="evenodd" clip-rule="evenodd" d="M43.0963 74.0217V48.4746H45.6502V74.0217H43.0963Z" fill="black"/>
<path fill-rule="evenodd" clip-rule="evenodd" d="M59.1573 52.3007V26.7536H61.7112V52.3007H59.1573Z" fill="black"/>
</svg>
