<svg width="101" height="86" viewBox="0 0 101 86" fill="none" xmlns="http://www.w3.org/2000/svg">
<path fill-rule="evenodd" clip-rule="evenodd" d="M0.247192 0.7323H3.32454V82.8638H100.247V85.9411H0.247192V0.7323Z" fill="black"/>
<path fill-rule="evenodd" clip-rule="evenodd" d="M92.6198 14.643L73.0448 43.4973H37.9309L19.9333 67.7937L17.4605 65.962L36.3807 40.4199H71.4138L90.0732 12.9153L92.6198 14.643Z" fill="black"/>
<path d="M97.5011 12.4798C97.5011 15.8789 94.7455 18.6345 91.3464 18.6345C87.9472 18.6345 85.1917 15.8789 85.1917 12.4798C85.1917 9.08065 87.9472 6.3251 91.3464 6.3251C94.7455 6.3251 97.5011 9.08065 97.5011 12.4798Z" fill="black"/>
<path d="M78.6472 40.8527C78.6472 44.2519 75.8916 47.0074 72.4925 47.0074C69.0933 47.0074 66.3378 44.2519 66.3378 40.8527C66.3378 37.4536 69.0933 34.698 72.4925 34.698C75.8916 34.698 78.6472 37.4536 78.6472 40.8527Z" fill="black"/>
<path d="M42.6951 43.0372C42.6951 46.4364 39.9395 49.1919 36.5404 49.1919C33.1412 49.1919 30.3857 46.4364 30.3857 43.0372C30.3857 39.6381 33.1412 36.8825 36.5404 36.8825C39.9395 36.8825 42.6951 39.6381 42.6951 43.0372Z" fill="black"/>
<path d="M24.8516 66.878C24.8516 70.2772 22.096 73.0327 18.6969 73.0327C15.2977 73.0327 12.5422 70.2772 12.5422 66.878C12.5422 63.4789 15.2977 60.7233 18.6969 60.7233C22.096 60.7233 24.8516 63.4789 24.8516 66.878Z" fill="black"/>
</svg>
