<svg width="72" height="81" viewBox="0 0 72 81" fill="none" xmlns="http://www.w3.org/2000/svg">
<path d="M58.75 57.566C58.75 54.0729 61.5817 51.2412 65.0748 51.2412C68.5678 51.2412 71.3995 54.0729 71.3995 57.566C71.3995 61.0591 68.5678 63.8908 65.0748 63.8908C61.5817 63.8908 58.75 61.0591 58.75 57.566Z" fill="black"/>
<path d="M58.75 23.8583C58.75 20.3652 61.5817 17.5335 65.0748 17.5335C68.5678 17.5335 71.3995 20.3652 71.3995 23.8583C71.3995 27.3514 68.5678 30.1831 65.0748 30.1831C61.5817 30.1831 58.75 27.3514 58.75 23.8583Z" fill="black"/>
<path d="M0.600098 57.566C0.600097 54.0729 3.4318 51.2412 6.92487 51.2412C10.4179 51.2412 13.2496 54.0729 13.2496 57.566C13.2496 61.0591 10.4179 63.8908 6.92487 63.8908C3.4318 63.8908 0.600098 61.0591 0.600098 57.566Z" fill="black"/>
<path d="M0.600098 23.8583C0.600097 20.3652 3.4318 17.5335 6.92487 17.5335C10.4179 17.5335 13.2496 20.3652 13.2496 23.8583C13.2496 27.3514 10.4179 30.1831 6.92487 30.1831C3.4318 30.1831 0.600098 27.3514 0.600098 23.8583Z" fill="black"/>
<path d="M29.6629 6.84736C29.6629 3.35428 32.4946 0.522583 35.9877 0.522583C39.4808 0.522583 42.3125 3.35428 42.3125 6.84736C42.3125 10.3404 39.4808 13.1721 35.9877 13.1721C32.4946 13.1721 29.6629 10.3404 29.6629 6.84736Z" fill="black"/>
<path d="M29.6629 74.1978C29.6629 70.7047 32.4946 67.873 35.9877 67.873C39.4808 67.873 42.3125 70.7047 42.3125 74.1978C42.3125 77.6909 39.4808 80.5226 35.9877 80.5226C32.4946 80.5226 29.6629 77.6909 29.6629 74.1978Z" fill="black"/>
<path fill-rule="evenodd" clip-rule="evenodd" d="M35.9873 75.6584L5.55874 58.0905L5.55873 22.9547L35.9873 5.38675L66.4158 22.9547L66.4158 58.0905L35.9873 75.6584ZM63.8859 56.6299L63.8859 24.4153L35.9873 8.30805L8.08864 24.4153L8.08865 56.6299L35.9873 72.7372L63.8859 56.6299Z" fill="black"/>
</svg>
