<svg width="126" height="81" viewBox="0 0 126 81" fill="none" xmlns="http://www.w3.org/2000/svg">
<path fill-rule="evenodd" clip-rule="evenodd" d="M35.51 3.88056C24.4553 3.88056 15.4937 12.8421 15.4937 23.8968C15.4937 34.9515 24.4553 43.9131 35.51 43.9131C46.5647 43.9131 55.5263 34.9515 55.5263 23.8968C55.5263 12.8421 46.5647 3.88056 35.51 3.88056ZM11.6972 23.8968C11.6972 10.7454 22.3585 0.0839844 35.51 0.0839844C48.6615 0.0839844 59.3229 10.7454 59.3229 23.8968C59.3229 37.0483 48.6615 47.7097 35.51 47.7097C22.3585 47.7097 11.6972 37.0483 11.6972 23.8968Z" fill="black"/>
<path fill-rule="evenodd" clip-rule="evenodd" d="M35.5103 46.4747C22.1904 46.4747 11.3924 57.2727 11.3924 70.5926H7.59583C7.59583 55.1759 20.0936 42.6781 35.5103 42.6781C50.927 42.6781 63.4248 55.1759 63.4248 70.5926H59.6282C59.6282 57.2727 48.8302 46.4747 35.5103 46.4747Z" fill="black"/>
<path fill-rule="evenodd" clip-rule="evenodd" d="M90.4899 3.88056C79.4352 3.88056 70.4736 12.8421 70.4736 23.8968C70.4736 34.9515 79.4352 43.9131 90.4899 43.9131C101.545 43.9131 110.506 34.9515 110.506 23.8968C110.506 12.8421 101.545 3.88056 90.4899 3.88056ZM66.677 23.8968C66.677 10.7454 77.3384 0.0839844 90.4899 0.0839844C103.641 0.0839844 114.303 10.7454 114.303 23.8968C114.303 37.0483 103.641 47.7097 90.4899 47.7097C77.3384 47.7097 66.677 37.0483 66.677 23.8968Z" fill="black"/>
<path fill-rule="evenodd" clip-rule="evenodd" d="M90.4902 46.4747C77.1703 46.4747 66.3723 57.2727 66.3723 70.5926H62.5757C62.5757 55.1759 75.0735 42.6781 90.4902 42.6781C105.907 42.6781 118.405 55.1759 118.405 70.5926H114.608C114.608 57.2727 103.81 46.4747 90.4902 46.4747Z" fill="black"/>
<path d="M45.0017 44.5764C45.0017 49.8184 40.7523 54.0678 35.5103 54.0678C30.2683 54.0678 26.0189 49.8184 26.0189 44.5764C26.0189 39.3344 30.2683 35.0849 35.5103 35.0849C40.7523 35.0849 45.0017 39.3344 45.0017 44.5764Z" fill="black"/>
<path d="M99.9816 44.5764C99.9816 49.8184 95.7321 54.0678 90.4902 54.0678C85.2482 54.0678 80.9987 49.8184 80.9987 44.5764C80.9987 39.3344 85.2482 35.0849 90.4902 35.0849C95.7321 35.0849 99.9816 39.3344 99.9816 44.5764Z" fill="black"/>
<path d="M125.998 70.5926C125.998 75.8345 121.748 80.084 116.506 80.084C111.264 80.084 107.015 75.8345 107.015 70.5926C107.015 65.3506 111.264 61.1011 116.506 61.1011C121.748 61.1011 125.998 65.3506 125.998 70.5926Z" fill="black"/>
<path d="M18.9856 70.5926C18.9856 75.8345 14.7361 80.084 9.49412 80.084C4.25215 80.084 0.00268555 75.8345 0.00268555 70.5926C0.00268555 65.3506 4.25215 61.1011 9.49412 61.1011C14.7361 61.1011 18.9856 65.3506 18.9856 70.5926Z" fill="black"/>
<path d="M72.4431 70.5926C72.4431 75.8345 68.1936 80.084 62.9517 80.084C57.7097 80.084 53.4602 75.8345 53.4602 70.5926C53.4602 65.3506 57.7097 61.1011 62.9517 61.1011C68.1936 61.1011 72.4431 65.3506 72.4431 70.5926Z" fill="black"/>
</svg>
