<svg width="87" height="71" viewBox="0 0 87 71" fill="none" xmlns="http://www.w3.org/2000/svg">
<path d="M48.9935 36.8838C48.9935 33.2162 51.9667 30.243 55.6343 30.243C59.3018 30.243 62.275 33.2162 62.275 36.8838C62.275 40.5513 59.3018 43.5245 55.6343 43.5245C51.9667 43.5245 48.9935 40.5513 48.9935 36.8838Z" fill="black"/>
<path d="M48.9935 7.08215C48.9935 3.41457 51.9667 0.441407 55.6343 0.441406C59.3018 0.441406 62.275 3.41457 62.275 7.08214C62.275 10.7497 59.3018 13.7229 55.6343 13.7229C51.9667 13.7229 48.9935 10.7497 48.9935 7.08215Z" fill="black"/>
<path d="M0.826904 36.8838C0.826904 33.2162 3.80006 30.243 7.46764 30.243C11.1352 30.243 14.1084 33.2162 14.1084 36.8838C14.1084 40.5513 11.1352 43.5245 7.46764 43.5245C3.80007 43.5245 0.826905 40.5513 0.826904 36.8838Z" fill="black"/>
<path d="M73.0548 36.8838C73.0548 33.2162 76.028 30.243 79.6955 30.243C83.3631 30.243 86.3363 33.2162 86.3363 36.8838C86.3363 40.5513 83.3631 43.5245 79.6955 43.5245C76.028 43.5245 73.0548 40.5513 73.0548 36.8838Z" fill="black"/>
<path d="M24.8882 63.8007C24.8882 60.1331 27.8613 57.1599 31.5289 57.1599C35.1965 57.1599 38.1696 60.1331 38.1696 63.8007C38.1696 67.4682 35.1965 70.4414 31.5289 70.4414C27.8613 70.4414 24.8882 67.4682 24.8882 63.8007Z" fill="black"/>
<path d="M24.8882 36.8838C24.8882 33.2162 27.8613 30.243 31.5289 30.243C35.1965 30.243 38.1696 33.2162 38.1696 36.8838C38.1696 40.5513 35.1965 43.5245 31.5289 43.5245C27.8613 43.5245 24.8882 40.5513 24.8882 36.8838Z" fill="black"/>
<path fill-rule="evenodd" clip-rule="evenodd" d="M56.7559 7.9463V37.6531H54.0996V7.9463H56.7559Z" fill="black"/>
<path fill-rule="evenodd" clip-rule="evenodd" d="M32.8534 36.8838V63.8007H30.1971V36.8838H32.8534Z" fill="black"/>
<path fill-rule="evenodd" clip-rule="evenodd" d="M79.6955 38.6067L8.0513 38.6067L8.0513 35.9504L79.6955 35.9504V38.6067Z" fill="black"/>
</svg>
