<svg width="121" height="77" viewBox="0 0 121 77" fill="none" xmlns="http://www.w3.org/2000/svg">
<path d="M20.7125 67.3983C20.7125 72.4218 16.6402 76.4941 11.6168 76.4941C6.59332 76.4941 2.52101 72.4218 2.52101 67.3983C2.52101 62.3749 6.59332 58.3026 11.6168 58.3026C16.6402 58.3026 20.7125 62.3749 20.7125 67.3983Z" fill="black"/>
<path d="M67.5491 66.422C67.5491 71.4455 63.4768 75.5178 58.4533 75.5178C53.4299 75.5178 49.3575 71.4455 49.3575 66.422C49.3575 61.3986 53.4299 57.3262 58.4533 57.3262C63.4768 57.3262 67.5491 61.3986 67.5491 66.422Z" fill="black"/>
<path d="M71.7776 13.7577C71.7776 18.7812 67.7053 22.8535 62.6819 22.8535C57.6584 22.8535 53.5861 18.7812 53.5861 13.7577C53.5861 8.73428 57.6584 4.66197 62.6819 4.66197C67.7053 4.66197 71.7776 8.73428 71.7776 13.7577Z" fill="black"/>
<path fill-rule="evenodd" clip-rule="evenodd" d="M19.5802 5.34637C11.4145 5.34637 4.79495 11.966 4.79495 20.1317C4.79495 28.2973 11.4145 34.9169 19.5802 34.9169C27.7459 34.9169 34.3655 28.2973 34.3655 20.1317C34.3655 11.966 27.7459 5.34637 19.5802 5.34637ZM0.24707 20.1317C0.24707 9.45424 8.90282 0.798488 19.5802 0.798488C30.2576 0.798488 38.9134 9.45424 38.9134 20.1317C38.9134 30.8091 30.2576 39.4648 19.5802 39.4648C8.90282 39.4648 0.24707 30.8091 0.24707 20.1317Z" fill="black"/>
<path fill-rule="evenodd" clip-rule="evenodd" d="M96.2045 10.2301H59.5698V65.1243H8.78679V69.6722H64.1177V14.778H96.2045C97.2689 20.389 102.199 24.6317 108.119 24.6317C114.817 24.6317 120.247 19.202 120.247 12.504C120.247 5.80609 114.817 0.376343 108.119 0.376343C102.199 0.376343 97.2689 4.61908 96.2045 10.2301Z" fill="black"/>
<path fill-rule="evenodd" clip-rule="evenodd" d="M86.5591 41.3826H118.764V73.27H86.5591V41.3826ZM91.107 45.9304V68.7222H114.217V45.9304H91.107Z" fill="black"/>
</svg>
