<svg width="92" height="81" viewBox="0 0 92 81" fill="none" xmlns="http://www.w3.org/2000/svg">
<path fill-rule="evenodd" clip-rule="evenodd" d="M45.8427 77.6597C66.1668 77.6597 82.6427 61.2132 82.6427 40.9254C82.6427 20.6376 66.1668 4.19111 45.8427 4.19111C25.5187 4.19111 9.04274 20.6376 9.04274 40.9254C9.04274 61.2132 25.5187 77.6597 45.8427 77.6597ZM45.8427 80.854C67.9341 80.854 85.8427 62.9773 85.8427 40.9254C85.8427 18.8735 67.9341 0.996826 45.8427 0.996826C23.7514 0.996826 5.84274 18.8735 5.84274 40.9254C5.84274 62.9773 23.7514 80.854 45.8427 80.854Z" fill="black"/>
<path fill-rule="evenodd" clip-rule="evenodd" d="M72.6153 53.2433C79.4373 49.5932 82.6427 45.0896 82.6427 40.9254C82.6427 36.7612 79.4373 32.2576 72.6153 28.6075C65.927 25.0289 56.4671 22.718 45.8427 22.718C35.2184 22.718 25.7585 25.0289 19.0702 28.6075C12.2482 32.2576 9.04274 36.7612 9.04274 40.9254C9.04274 45.0896 12.2482 49.5932 19.0702 53.2433C25.7585 56.8219 35.2184 59.1328 45.8427 59.1328C56.4671 59.1328 65.927 56.8219 72.6153 53.2433ZM45.8427 62.3271C67.9341 62.3271 85.8427 52.7452 85.8427 40.9254C85.8427 29.1056 67.9341 19.5237 45.8427 19.5237C23.7514 19.5237 5.84274 29.1056 5.84274 40.9254C5.84274 52.7452 23.7514 62.3271 45.8427 62.3271Z" fill="black"/>
<path d="M91.2809 40.9254C91.2809 45.3358 87.6991 48.9111 83.2809 48.9111C78.8626 48.9111 75.2809 45.3358 75.2809 40.9254C75.2809 36.515 78.8626 32.9397 83.2809 32.9397C87.6991 32.9397 91.2809 36.515 91.2809 40.9254Z" fill="black"/>
<path d="M16.719 40.9254C16.719 45.3358 13.1373 48.9111 8.71899 48.9111C4.30072 48.9111 0.718994 45.3358 0.718994 40.9254C0.718994 36.515 4.30072 32.9397 8.71899 32.9397C13.1373 32.9397 16.719 36.515 16.719 40.9254Z" fill="black"/>
</svg>
